<svg width="160" height="160" viewBox="0 0 160 160" fill="none" xmlns="http://www.w3.org/2000/svg">
<g filter="url(#filter0_d_241_4103)">
<circle cx="80" cy="76" r="58" fill="white"/>
<path d="M111.683 66.1178L82.1648 39.8798C81.5662 39.354 80.7968 39.064 80.0001 39.064C79.2035 39.064 78.4341 39.354 77.8355 39.8798L48.3176 66.1178C47.8159 66.5616 47.4622 67.1483 47.3039 67.7993C47.1456 68.45 47.1903 69.1339 47.4321 69.7583C47.67 70.3749 48.0884 70.9049 48.6327 71.2795C49.1769 71.654 49.8216 71.8554 50.4823 71.8574H53.762V101.375C53.762 102.245 54.1076 103.079 54.7227 103.694C55.3377 104.31 56.172 104.655 57.0418 104.655H102.958C103.828 104.655 104.663 104.31 105.278 103.694C105.893 103.079 106.238 102.245 106.238 101.375V71.8574H109.518C110.179 71.8554 110.823 71.654 111.367 71.2795C111.912 70.9049 112.33 70.3749 112.568 69.7583C112.81 69.1339 112.855 68.45 112.696 67.7993C112.538 67.1483 112.184 66.5616 111.683 66.1178ZM83.2799 98.0955H76.7204V88.2562C76.7204 87.3864 77.0661 86.552 77.681 85.9371C78.296 85.3221 79.1304 84.9764 80.0001 84.9764C80.8699 84.9764 81.7043 85.3221 82.3193 85.9371C82.9342 86.552 83.2799 87.3864 83.2799 88.2562V98.0955ZM99.6787 98.0955H89.8394V88.2562C89.8394 85.6468 88.8027 83.144 86.9575 81.2988C85.1123 79.4536 82.6095 78.4169 80.0001 78.4169C77.3904 78.4169 74.888 79.4536 73.0427 81.2988C71.1975 83.144 70.1609 85.6468 70.1609 88.2562V98.0955H60.3216V71.8574H99.6787V98.0955ZM59.1081 65.2979L80.0001 46.7345L100.892 65.2979H59.1081Z" fill="#0090BD"/>
</g>
<defs>
<filter id="filter0_d_241_4103" x="0" y="0" width="160" height="160" filterUnits="userSpaceOnUse" color-interpolation-filters="sRGB">
<feFlood flood-opacity="0" result="BackgroundImageFix"/>
<feColorMatrix in="SourceAlpha" type="matrix" values="0 0 0 0 0 0 0 0 0 0 0 0 0 0 0 0 0 0 127 0" result="hardAlpha"/>
<feOffset dy="4"/>
<feGaussianBlur stdDeviation="11"/>
<feColorMatrix type="matrix" values="0 0 0 0 0 0 0 0 0 0 0 0 0 0 0 0 0 0 0.05 0"/>
<feBlend mode="normal" in2="BackgroundImageFix" result="effect1_dropShadow_241_4103"/>
<feBlend mode="normal" in="SourceGraphic" in2="effect1_dropShadow_241_4103" result="shape"/>
</filter>
</defs>
</svg>
