<svg width="161" height="160" viewBox="0 0 161 160" fill="none" xmlns="http://www.w3.org/2000/svg">
<g filter="url(#filter0_d_186_27)">
<circle cx="80.2344" cy="76" r="58" fill="white"/>
<path d="M111.917 66.1176L82.3992 39.8795C81.8006 39.3537 81.0312 39.0637 80.2345 39.0637C79.4379 39.0637 78.6684 39.3537 78.0699 39.8795L48.552 66.1176C48.0503 66.5613 47.6965 67.1481 47.5382 67.7991C47.3799 68.4498 47.4247 69.1336 47.6665 69.7581C47.9043 70.3747 48.3228 70.9047 48.867 71.2793C49.4113 71.6538 50.056 71.8552 50.7167 71.8571H53.9964V101.375C53.9964 102.245 54.3419 103.079 54.957 103.694C55.5721 104.309 56.4063 104.655 57.2762 104.655H103.193C104.063 104.655 104.897 104.309 105.512 103.694C106.127 103.079 106.473 102.245 106.473 101.375V71.8571H109.752C110.413 71.8552 111.058 71.6538 111.602 71.2793C112.146 70.9047 112.565 70.3747 112.803 69.7581C113.044 69.1336 113.089 68.4498 112.931 67.7991C112.772 67.1481 112.419 66.5613 111.917 66.1176ZM83.5143 98.0952H76.9548V88.256C76.9548 87.3862 77.3004 86.5518 77.9154 85.9368C78.5304 85.3219 79.3647 84.9762 80.2345 84.9762C81.1043 84.9762 81.9387 85.3219 82.5536 85.9368C83.1686 86.5518 83.5143 87.3862 83.5143 88.256V98.0952ZM99.9131 98.0952H90.0738V88.256C90.0738 85.6466 89.0371 83.1438 87.1919 81.2986C85.3467 79.4534 82.8439 78.4167 80.2345 78.4167C77.6248 78.4167 75.1224 79.4534 73.2771 81.2986C71.4319 83.1438 70.3952 85.6466 70.3952 88.256V98.0952H60.5559V71.8571H99.9131V98.0952ZM59.3424 65.2976L80.2345 46.7342L101.127 65.2976H59.3424Z" fill="#F9C03F"/>
</g>
<defs>
<filter id="filter0_d_186_27" x="0.234375" y="0" width="160" height="160" filterUnits="userSpaceOnUse" color-interpolation-filters="sRGB">
<feFlood flood-opacity="0" result="BackgroundImageFix"/>
<feColorMatrix in="SourceAlpha" type="matrix" values="0 0 0 0 0 0 0 0 0 0 0 0 0 0 0 0 0 0 127 0" result="hardAlpha"/>
<feOffset dy="4"/>
<feGaussianBlur stdDeviation="11"/>
<feColorMatrix type="matrix" values="0 0 0 0 0 0 0 0 0 0 0 0 0 0 0 0 0 0 0.05 0"/>
<feBlend mode="normal" in2="BackgroundImageFix" result="effect1_dropShadow_186_27"/>
<feBlend mode="normal" in="SourceGraphic" in2="effect1_dropShadow_186_27" result="shape"/>
</filter>
</defs>
</svg>
