<svg width="161" height="160" viewBox="0 0 161 160" fill="none" xmlns="http://www.w3.org/2000/svg">
<g filter="url(#filter0_d_282_962)">
<circle cx="80.5352" cy="76" r="58" fill="white"/>
<path d="M112.218 66.1178L82.6999 39.8798C82.1014 39.354 81.332 39.064 80.5353 39.064C79.7386 39.064 78.9692 39.354 78.3707 39.8798L48.8528 66.1178C48.3511 66.5616 47.9973 67.1483 47.839 67.7993C47.6807 68.45 47.7254 69.1339 47.9673 69.7583C48.2051 70.3749 48.6235 70.9049 49.1678 71.2795C49.7121 71.654 50.3568 71.8554 51.0174 71.8574H54.2972V101.375C54.2972 102.245 54.6427 103.079 55.2578 103.694C55.8729 104.31 56.7071 104.655 57.577 104.655H103.494C104.363 104.655 105.198 104.31 105.813 103.694C106.428 103.079 106.773 102.245 106.773 101.375V71.8574H110.053C110.714 71.8554 111.359 71.654 111.903 71.2795C112.447 70.9049 112.866 70.3749 113.103 69.7583C113.345 69.1339 113.39 68.45 113.232 67.7993C113.073 67.1483 112.72 66.5616 112.218 66.1178ZM83.8151 98.0955H77.2555V88.2562C77.2555 87.3864 77.6012 86.552 78.2162 85.9371C78.8311 85.3221 79.6655 84.9764 80.5353 84.9764C81.4051 84.9764 82.2395 85.3221 82.8544 85.9371C83.4694 86.552 83.8151 87.3864 83.8151 88.2562V98.0955ZM100.214 98.0955H90.3746V88.2562C90.3746 85.6468 89.3379 83.144 87.4927 81.2988C85.6475 79.4536 83.1447 78.4169 80.5353 78.4169C77.9256 78.4169 75.4231 79.4536 73.5779 81.2988C71.7327 83.144 70.696 85.6468 70.696 88.2562V98.0955H60.8567V71.8574H100.214V98.0955ZM59.6432 65.2979L80.5353 46.7345L101.427 65.2979H59.6432Z" fill="#69AAD0"/>
</g>
<defs>
<filter id="filter0_d_282_962" x="0.535156" y="0" width="160" height="160" filterUnits="userSpaceOnUse" color-interpolation-filters="sRGB">
<feFlood flood-opacity="0" result="BackgroundImageFix"/>
<feColorMatrix in="SourceAlpha" type="matrix" values="0 0 0 0 0 0 0 0 0 0 0 0 0 0 0 0 0 0 127 0" result="hardAlpha"/>
<feOffset dy="4"/>
<feGaussianBlur stdDeviation="11"/>
<feColorMatrix type="matrix" values="0 0 0 0 0 0 0 0 0 0 0 0 0 0 0 0 0 0 0.05 0"/>
<feBlend mode="normal" in2="BackgroundImageFix" result="effect1_dropShadow_282_962"/>
<feBlend mode="normal" in="SourceGraphic" in2="effect1_dropShadow_282_962" result="shape"/>
</filter>
</defs>
</svg>
