<svg width="179" height="70" viewBox="0 0 179 70" fill="none" xmlns="http://www.w3.org/2000/svg">
<g clip-path="url(#clip0)">
<path d="M125.665 40.9188H4.65723V5.10638H174.342V40.9188H142.926V63.079L125.665 40.9188Z" fill="#FFF200"/>
<path d="M21.0055 14.8015C25.3892 14.8015 27.4897 16.1865 27.4897 18.9565C27.4897 22.0233 24.2933 22.9137 19.5443 22.9137C24.2933 22.9137 28.0377 23.903 28.0377 27.0687C28.0377 30.828 25.2979 31.8173 21.4622 31.8173H15.252V14.8015H21.0055ZM18.5397 17.7693V23.0126C23.8366 23.0126 24.202 21.5287 24.202 20.3415C24.202 18.7586 23.106 17.7693 20.8229 17.7693H18.5397ZM18.5397 23.0126V28.8494H21.4622C24.202 28.8494 24.7499 27.3655 24.7499 25.9805C24.7499 24.2987 23.7453 23.0126 18.5397 23.0126Z" fill="#010101"/>
<path d="M36.6222 14.8015V21.8254H43.1978V14.8015H46.5768V31.9162H43.1978V24.9912H36.6222V31.9162H33.2432V14.8015H36.6222Z" fill="#010101"/>
<path d="M55.7092 31.9162H52.3301V14.8015H55.7092V31.9162ZM62.924 14.8015L59.0882 31.9162H55.7092L59.5449 14.8015H62.924ZM66.303 31.9162H62.924V14.8015H66.303V31.9162Z" fill="#010101"/>
<path d="M72.1484 14.8015H75.2535V31.9162H72.1484V14.8015ZM81.5551 31.9162L84.2035 14.8015H87.126L84.4775 31.9162H78.176L75.3449 14.8015H78.7239L81.5551 31.9162ZM90.5964 31.9162H87.2173V14.8015H90.5964V31.9162Z" fill="#010101"/>
<path d="M106.944 31.9162L105.665 26.9698H99.1811L97.9025 31.9162H94.7061L99.2724 14.8015H102.469L100.094 23.804H104.843L102.469 14.8015H105.939L110.414 31.9162H106.944Z" fill="#010101"/>
<path d="M117.903 14.8015V21.8254H124.387V14.8015H127.858V31.9162H124.387V24.9912H117.903V31.9162H114.433V14.8015H117.903Z" fill="#010101"/>
<path d="M137.081 31.9162H133.702V14.8015H137.081V31.9162ZM144.296 14.8015L140.46 31.9162H137.081L140.917 14.8015H144.296ZM147.584 31.9162H144.205V14.8015H147.584V31.9162Z" fill="#010101"/>
<path d="M163.839 14.8015V17.9672H156.807V21.7265H163.839V24.8923H156.807V28.7505H163.839V31.9162H153.52V14.8015H163.839Z" fill="#010101"/>
<path d="M142.926 58.1325L125.665 41.0178H4.65765V5.10637H174.342V40.9188H142.926V58.1325ZM147.584 69.9052V58.0336V46.0632H174.342H179V41.0178V5.10637V0.0609741H174.342H4.65765H0V5.10637V40.9188V45.9642H4.65765H123.565L147.584 69.9052Z" fill="#212529"/>
</g>
<defs>
<clipPath id="clip0">
<rect width="179" height="69.8442" fill="white" transform="translate(0 0.0609741)"/>
</clipPath>
</defs>
</svg>
