<svg width="128" height="47" viewBox="0 0 128 47" fill="none" xmlns="http://www.w3.org/2000/svg">
<path d="M15.0204 9.91925C18.1551 9.91925 19.6571 10.8513 19.6571 12.7153C19.6571 14.779 17.3714 15.3782 13.9755 15.3782C17.3714 15.3782 20.049 16.0439 20.049 18.1742C20.049 20.704 18.0898 21.3697 15.3469 21.3697H10.9061V9.91925H15.0204ZM13.2571 11.9164V15.4447C17.0449 15.4447 17.3061 14.4462 17.3061 13.6473C17.3061 12.5821 16.5225 11.9164 14.8898 11.9164H13.2571ZM13.2571 15.4447V19.3725H15.3469C17.3061 19.3725 17.698 18.3739 17.698 17.4419C17.698 16.3102 16.9796 15.4447 13.2571 15.4447Z" fill="white"/>
<path d="M26.1878 9.91925V14.6459H30.8899V9.91925H33.3062V21.4362H30.8899V16.7762H26.1878V21.4362H23.7715V9.91925H26.1878Z" fill="white"/>
<path d="M39.8367 21.4362H37.4204V9.91925H39.8367V21.4362ZM44.9959 9.91925L42.2531 21.4362H39.8367L42.5796 9.91925H44.9959ZM47.4123 21.4362H44.9959V9.91925H47.4123V21.4362Z" fill="white"/>
<path d="M51.5919 9.91925H53.8123V21.4362H51.5919V9.91925ZM58.3184 21.4362L60.2123 9.91925H62.3021L60.4082 21.4362H55.9021L53.8776 9.91925H56.2939L58.3184 21.4362ZM64.7837 21.4362H62.3674V9.91925H64.7837V21.4362Z" fill="white"/>
<path d="M76.4734 21.4362L75.5591 18.1076H70.9224L70.0081 21.4362H67.7224L70.9877 9.91925H73.2734L71.5755 15.9773H74.9714L73.2734 9.91925H75.7551L78.9551 21.4362H76.4734Z" fill="white"/>
<path d="M84.3102 9.91925V14.6459H88.947V9.91925H91.4286V21.4362H88.947V16.7762H84.3102V21.4362H81.8286V9.91925H84.3102Z" fill="white"/>
<path d="M98.0245 21.4362H95.6082V9.91925H98.0245V21.4362ZM103.184 9.91925L100.441 21.4362H98.0245L100.767 9.91925H103.184ZM105.535 21.4362H103.118V9.91925H105.535V21.4362Z" fill="white"/>
<path d="M117.159 9.91925V12.0496H112.131V14.5793H117.159V16.7096H112.131V19.3059H117.159V21.4362H109.78V9.91925H117.159Z" fill="white"/>
<path d="M102.204 39.0779L89.8612 27.5609H3.33061V3.39518H124.669V27.4943H102.204V39.0779ZM105.535 47V30.9561H128V0H0V30.9561H88.3592L105.535 47Z" fill="white"/>
</svg>
