<svg width="141" height="67" viewBox="0 0 141 67" fill="none" xmlns="http://www.w3.org/2000/svg">
<g clip-path="url(#clip0_75_24219)">
<path fill-rule="evenodd" clip-rule="evenodd" d="M102.768 33.5149C102.768 27.6965 98.8404 23.5945 93.1383 23.5945C87.378 23.5945 83.4506 27.6965 83.4506 33.5149C83.4506 39.217 87.378 43.3772 93.1383 43.3772C98.8404 43.3772 102.768 39.217 102.768 33.5149ZM93.1383 49.632C84.0324 49.632 76.7012 42.7662 76.7012 33.4858C76.7012 24.2636 84.0324 17.3105 93.1383 17.3105C102.186 17.3105 109.517 24.2927 109.517 33.4858C109.517 42.7953 102.186 49.632 93.1383 49.632ZM112.717 18.5906C112.717 18.0669 113.008 17.776 113.532 17.776H118.594C119.118 17.776 119.409 18.0669 119.409 18.5906V30.7802L130.784 18.2706C131.104 17.9215 131.395 17.8051 131.86 17.8051H139.162C139.657 17.8051 139.715 18.2997 139.395 18.6488L125.169 33.0203L140.151 48.381C140.471 48.7011 140.413 49.2247 139.919 49.2247H132.675C132.064 49.2247 131.889 49.0793 131.569 48.7883L119.409 35.435V48.381C119.409 48.9047 119.118 49.1956 118.594 49.1956H113.532C113.008 49.1956 112.717 48.9047 112.717 48.381V18.5906Z" fill="black"/>
<path fill-rule="evenodd" clip-rule="evenodd" d="M0.216797 32.1768C0.216797 17.398 0.216797 10.0086 4.81337 5.412C9.40995 0.81543 16.7994 0.81543 31.5782 0.81543H34.1966C48.9754 0.81543 56.3648 0.81543 60.9614 5.412C65.558 10.0086 65.558 17.398 65.558 32.1768V34.7951C65.558 49.574 65.558 56.9634 60.9614 61.56C56.3648 66.1566 48.9754 66.1566 34.1966 66.1566H31.5782C16.7994 66.1566 9.40995 66.1566 4.81337 61.56C0.216797 56.9634 0.216797 49.574 0.216797 34.7951V32.1768ZM32.8856 33.3116C36.0857 33.3116 38.9658 32.0316 41.0605 29.9369C43.1551 27.8423 44.4352 24.9331 44.4352 21.762C44.4352 18.5619 43.1551 15.6817 41.0605 13.5871C38.9658 11.4925 36.0857 10.2124 32.8856 10.2124C29.6854 10.2124 26.8053 11.4925 24.7106 13.5871C22.616 15.6817 21.3359 18.5619 21.3359 21.762C21.3359 24.9622 22.616 27.8423 24.7106 29.9369C26.8053 32.0025 29.6854 33.3116 32.8856 33.3116ZM29.1908 18.0382C30.1509 17.0782 31.46 16.4963 32.8856 16.4963C34.3402 16.4963 35.6493 17.0782 36.5803 18.0382C37.5403 18.9983 38.1222 20.3074 38.1222 21.7329C38.1222 23.1584 37.5403 24.4967 36.5803 25.4276C35.6202 26.3877 34.3111 26.9695 32.8856 26.9695C31.431 26.9695 30.1218 26.3877 29.1908 25.4276C28.2308 24.4676 27.649 23.1584 27.649 21.7329C27.649 20.3074 28.2308 18.9983 29.1908 18.0382ZM45.0199 33.3415L48.4237 37.9672C48.5691 38.1999 48.5401 38.5199 48.3073 38.6945C45.4563 41.0219 42.1688 42.5638 38.7069 43.3783L45.8636 55.9753C46.0672 56.3244 45.8054 56.7608 45.3981 56.7608H38.3869C38.1832 56.7608 37.9796 56.6444 37.8923 56.4407L32.8884 45.2693L27.8845 56.4407C27.7973 56.6444 27.5936 56.7608 27.39 56.7608H20.3787C19.9715 56.7608 19.7096 56.3244 19.8842 55.9753L27.0409 43.3783C23.5789 42.5638 20.2624 41.0219 17.4113 38.6945C17.2077 38.5199 17.1495 38.1999 17.3241 37.9672L20.6988 33.3415C20.9024 33.0797 21.2806 33.0506 21.5133 33.2542C24.7135 35.9598 28.6409 37.7345 32.8593 37.7345C37.0777 37.7345 41.0052 35.9889 44.2053 33.2542C44.4671 33.0506 44.8162 33.0797 45.0199 33.3415Z" fill="black"/>
</g>
<defs>
<clipPath id="clip0_75_24219">
<rect width="140.137" height="65.3411" fill="white" transform="translate(0.216797 0.81543)"/>
</clipPath>
</defs>
</svg>
