<svg width="167" height="78" viewBox="0 0 167 78" fill="none" xmlns="http://www.w3.org/2000/svg">
<g clip-path="url(#clip0_74_10370)">
<path fill-rule="evenodd" clip-rule="evenodd" d="M121.895 39.0177C121.895 32.1485 117.258 27.3057 110.527 27.3057C103.726 27.3057 99.0894 32.1485 99.0894 39.0177C99.0894 45.7495 103.726 50.661 110.527 50.661C117.258 50.661 121.895 45.7495 121.895 39.0177ZM110.527 58.0454C99.7763 58.0454 91.1211 49.9397 91.1211 38.9833C91.1211 28.0957 99.7763 19.887 110.527 19.887C121.208 19.887 129.863 28.13 129.863 38.9833C129.863 49.9741 121.208 58.0454 110.527 58.0454ZM133.641 21.3982C133.641 20.78 133.985 20.4365 134.603 20.4365H140.579C141.198 20.4365 141.541 20.78 141.541 21.3982V35.7892L154.97 21.0204C155.348 20.6082 155.692 20.4708 156.241 20.4708H164.862C165.446 20.4708 165.515 21.0547 165.137 21.4669L148.342 38.4338L166.03 56.5685C166.408 56.9463 166.339 57.5645 165.755 57.5645H157.203C156.482 57.5645 156.275 57.3928 155.898 57.0493L141.541 41.2845V56.5685C141.541 57.1867 141.198 57.5302 140.579 57.5302H134.603C133.985 57.5302 133.641 57.1867 133.641 56.5685V21.3982Z" fill="black"/>
<path d="M0.824219 37.4376C0.824219 19.9898 0.824219 11.2659 6.25089 5.83927C11.6776 0.412598 20.4014 0.412598 37.8492 0.412598H40.9404C58.3881 0.412598 67.112 0.412598 72.5387 5.83927C77.9653 11.2659 77.9653 19.9898 77.9653 37.4376V40.5287C77.9653 57.9765 77.9653 66.7004 72.5387 72.127C67.112 77.5537 58.3881 77.5537 40.9404 77.5537H37.8492C20.4014 77.5537 11.6776 77.5537 6.25089 72.127C0.824219 66.7004 0.824219 57.9765 0.824219 40.5287V37.4376Z" fill="#FF7700"/>
<path d="M39.3932 38.7771C43.1712 38.7771 46.5715 37.2658 49.0444 34.7929C51.5173 32.32 53.0285 28.8854 53.0285 25.1417C53.0285 21.3637 51.5173 17.9634 49.0444 15.4905C46.5715 13.0176 43.1712 11.5063 39.3932 11.5063C35.6151 11.5063 32.2149 13.0176 29.7419 15.4905C27.269 17.9634 25.7578 21.3637 25.7578 25.1417C25.7578 28.9198 27.269 32.32 29.7419 34.7929C32.2149 37.2315 35.6151 38.7771 39.3932 38.7771ZM35.0312 20.7454C36.1647 19.612 37.7102 18.9251 39.3932 18.9251C41.1105 18.9251 42.656 19.612 43.7551 20.7454C44.8885 21.8788 45.5755 23.4244 45.5755 25.1074C45.5755 26.7903 44.8885 28.3702 43.7551 29.4693C42.6217 30.6027 41.0761 31.2896 39.3932 31.2896C37.6759 31.2896 36.1303 30.6027 35.0312 29.4693C33.8978 28.3359 33.2109 26.7903 33.2109 25.1074C33.2109 23.4244 33.8978 21.8788 35.0312 20.7454Z" fill="white"/>
<path d="M57.7363 44.2726L53.7179 38.8116C53.4774 38.5025 53.0653 38.4681 52.7562 38.7086C48.9781 41.9371 44.3414 43.9978 39.3612 43.9978C34.3811 43.9978 29.7443 41.9027 25.9663 38.7086C25.6915 38.4681 25.245 38.5025 25.0046 38.8116L21.0205 44.2726C20.8144 44.5474 20.8831 44.9252 21.1235 45.1313C24.4894 47.8789 28.4048 49.6993 32.492 50.661L24.0429 65.5328C23.8368 65.9449 24.1459 66.4601 24.6268 66.4601H32.9042C33.1446 66.4601 33.385 66.3227 33.4881 66.0823L39.3956 52.8935L45.3031 66.0823C45.4061 66.3227 45.6465 66.4601 45.887 66.4601H54.1644C54.6452 66.4601 54.9543 65.9449 54.7139 65.5328L46.2648 50.661C50.3519 49.6993 54.233 47.8789 57.599 45.1313C57.8737 44.9252 57.9081 44.5474 57.7363 44.2726Z" fill="white"/>
</g>
<defs>
<clipPath id="clip0_74_10370">
<rect width="165.445" height="77.1411" fill="white" transform="translate(0.824219 0.412598)"/>
</clipPath>
</defs>
</svg>
