<svg width="234" height="57" viewBox="0 0 234 57" fill="none" xmlns="http://www.w3.org/2000/svg">
<path d="M17.0487 29.1886C25.371 29.1886 32.1554 22.6343 32.1554 14.5943C32.1554 6.55433 25.371 0 17.0487 0C8.72646 0 1.85156 6.55433 1.85156 14.5943C1.85156 22.6343 8.636 29.1886 17.0487 29.1886ZM17.0487 8.56432C20.4862 8.56432 23.2904 11.2734 23.2904 14.5943C23.2904 17.9152 20.4862 20.6243 17.0487 20.6243C13.6113 20.6243 10.807 17.9152 10.807 14.5943C10.7166 11.2734 13.5208 8.56432 17.0487 8.56432Z" fill="#EE8208"/>
<path d="M23.1107 41.1612C26.1864 40.4621 29.1715 39.326 31.8853 37.6656C33.9659 36.4421 34.5991 33.733 33.2422 31.723C31.9758 29.713 29.1715 29.1013 27.091 30.4121C20.9397 34.1699 12.8888 34.1699 6.7376 30.4121C4.65703 29.1887 1.94325 29.713 0.586356 31.723C-0.589616 33.733 0.0435994 36.3547 2.12417 37.5782C4.83795 39.2386 7.82311 40.3747 10.8987 41.0738L2.486 49.2012C0.767275 50.8616 0.767275 53.5708 2.486 55.2312C3.3906 56.1051 4.47611 56.4547 5.65208 56.4547C6.82805 56.4547 7.91357 56.0177 8.81816 55.2312L17.1404 47.1912L25.4627 55.2312C27.1814 56.8916 29.9857 56.8916 31.7044 55.2312C33.4231 53.5708 33.4231 50.8616 31.7044 49.2012L23.1107 41.1612Z" fill="#EE8208"/>
<path d="M140.436 20.8864C138.446 20.8864 136.908 21.4108 136.094 21.7603C135.733 22.0225 135.009 22.2847 135.461 23.246L135.733 23.6829C136.094 24.2947 136.547 24.4694 137.361 24.1199C137.994 23.8577 139.17 23.5081 140.165 23.5081C142.246 23.5081 143.693 24.4694 143.783 27.1786V27.6155C143.06 26.9164 141.793 26.2173 139.803 26.2173C136.456 26.2173 134.285 28.0525 134.285 30.849C134.285 33.6455 136.456 35.5681 139.803 35.5681C141.612 35.5681 143.06 34.869 143.964 33.8203C144.236 34.5194 144.507 35.2185 145.321 35.2185H145.412C146.226 35.2185 146.407 34.9564 146.407 34.1699V26.829C146.407 22.5468 144.145 20.8864 140.436 20.8864ZM140.527 33.1212C138.718 33.1212 137.451 32.2472 137.451 30.849C137.451 29.4507 138.808 28.5768 140.527 28.5768C142.336 28.5768 143.693 29.4507 143.693 30.849C143.693 32.1599 142.336 33.1212 140.527 33.1212Z" fill="#75787B"/>
<path d="M86.9741 21.2344H86.0695C85.2553 21.2344 85.0744 21.4966 85.0744 22.1957V26.8275H79.466V22.1957C79.466 21.4092 79.1946 21.2344 78.4709 21.2344H77.5663C76.7522 21.2344 76.5713 21.4966 76.5713 22.1957V34.0809C76.5713 34.8674 76.8427 35.1296 77.5663 35.1296H78.4709C79.2851 35.1296 79.466 34.8674 79.466 34.0809V29.624H85.0744V34.0809C85.0744 34.8674 85.3458 35.1296 86.0695 35.1296H86.9741C87.7882 35.1296 88.0596 34.8674 88.0596 34.0809V22.1957C88.0596 21.4966 87.7882 21.2344 86.9741 21.2344Z" fill="#75787B"/>
<path d="M51.9666 20.9745C47.8054 20.9745 45.5439 23.9458 45.5439 27.8784V28.5775C45.5439 32.5975 47.715 35.4814 51.9666 35.4814C56.1277 35.4814 58.3892 32.5101 58.3892 28.5775V27.8784C58.3892 23.9458 56.2181 20.9745 51.9666 20.9745ZM55.3135 28.4901C55.3135 31.0245 54.3185 32.9471 51.9666 32.9471C49.7051 32.9471 48.6196 30.8497 48.6196 28.4901V28.0532C48.6196 25.6936 49.5242 23.5962 51.9666 23.5962C54.409 23.5962 55.3135 25.6936 55.3135 28.0532V28.4901Z" fill="#75787B"/>
<path d="M97.4675 20.9745C93.3064 20.9745 91.0449 23.9458 91.0449 27.8784V28.5775C91.0449 32.5975 93.2159 35.4814 97.4675 35.4814C101.629 35.4814 103.89 32.5101 103.89 28.5775V27.8784C103.8 23.9458 101.629 20.9745 97.4675 20.9745ZM100.724 28.4901C100.724 31.0245 99.729 32.9471 97.3771 32.9471C95.0251 32.9471 94.0301 30.8497 94.0301 28.4901V28.0532C94.0301 25.6936 94.9347 23.5962 97.3771 23.5962C99.8195 23.5962 100.724 25.6936 100.724 28.0532V28.4901Z" fill="#75787B"/>
<path d="M72.7723 32.5079H71.9581V22.1957C71.9581 21.4092 71.6867 21.2344 70.8726 21.2344H63.6358C62.9121 21.2344 62.6407 21.4966 62.6407 22.1957C62.6407 25.3418 62.1884 29.5366 61.3743 32.5079H60.5601C59.746 32.5079 59.4746 32.7701 59.4746 33.5566L59.5651 37.1396C59.5651 37.9261 59.8365 38.1009 60.6506 38.1009H61.1934C62.0075 38.1009 62.1884 37.8387 62.2789 37.1396L62.3693 35.0422H71.144L71.2344 37.1396C71.2344 37.9261 71.5058 38.1009 72.32 38.1009H72.8627C73.5864 38.1009 73.9482 37.8387 73.9482 37.1396L74.0387 33.5566C73.8578 32.7701 73.4959 32.5079 72.7723 32.5079ZM69.0634 32.5079H64.3595C64.9927 29.8862 65.2641 26.2157 65.445 23.6814H69.0634V32.5079Z" fill="#75787B"/>
<path d="M215.246 27.7888L219.407 22.021C219.678 21.6714 219.588 21.2344 218.954 21.2344H217.507C216.512 21.2344 216.331 21.3218 215.879 22.021L212.532 26.8275H211.265V22.1957C211.265 21.4092 210.994 21.2344 210.18 21.2344H209.275C208.552 21.2344 208.28 21.4966 208.28 22.1957V34.0809C208.28 34.8674 208.552 35.1296 209.275 35.1296H210.18C210.994 35.1296 211.265 34.8674 211.265 34.0809V29.624H212.984L216.331 34.3431C216.874 35.0422 216.964 35.1296 217.959 35.1296H219.407C220.04 35.1296 220.221 34.6053 219.859 34.1683L215.246 27.7888Z" fill="#75787B"/>
<path d="M232.704 21.2344H232.433C231.709 21.2344 231.438 21.4966 230.895 22.1957L228.815 24.8175C227.639 26.3905 225.829 28.7501 224.834 30.2357C224.925 28.6627 225.106 25.2544 225.106 23.5066V22.1957C225.106 21.4092 224.834 21.2344 224.111 21.2344H223.206C222.482 21.2344 222.211 21.4966 222.211 22.1957V34.0809C222.211 34.8674 222.482 35.1296 223.206 35.1296H223.477C224.292 35.1296 224.563 34.7801 225.106 34.0809L227.096 31.4592C228.362 29.8862 230.081 27.5266 231.166 25.9536C230.986 27.614 230.895 30.9348 230.895 32.6827V34.0809C230.895 34.8674 231.166 35.1296 231.89 35.1296H232.704C233.428 35.1296 233.699 34.8674 233.699 34.0809V22.1957C233.699 21.4966 233.428 21.2344 232.704 21.2344Z" fill="#75787B"/>
<path d="M203.396 21.2344H203.125C202.31 21.2344 202.039 21.4966 201.587 22.1957L199.506 24.8175L195.526 30.2357C195.707 28.6627 195.797 25.2544 195.797 23.5066V22.1957C195.797 21.4092 195.526 21.2344 194.802 21.2344H193.988C193.174 21.2344 192.993 21.4966 192.993 22.1957V34.0809C192.993 34.8674 193.265 35.1296 193.988 35.1296H194.26C194.983 35.1296 195.255 34.7801 195.797 34.0809L197.878 31.4592C199.054 29.8862 200.773 27.5266 201.858 25.9536C201.768 27.614 201.587 30.9348 201.587 32.6827V34.0809C201.587 34.8674 201.858 35.1296 202.582 35.1296H203.396C204.21 35.1296 204.481 34.8674 204.481 34.0809V22.1957C204.481 21.4966 204.21 21.2344 203.396 21.2344Z" fill="#75787B"/>
<path d="M113.841 27.7888L118.002 22.021C118.273 21.6714 118.183 21.2344 117.55 21.2344H116.102C115.107 21.2344 115.017 21.3218 114.565 22.021L111.127 26.8275H109.861V22.1957C109.861 21.4092 109.589 21.2344 108.775 21.2344H107.871C107.057 21.2344 106.785 21.4966 106.785 22.1957V34.0809C106.785 34.8674 107.057 35.1296 107.871 35.1296H108.775C109.499 35.1296 109.861 34.8674 109.861 34.0809V29.624H111.489L114.927 34.3431C115.379 35.0422 115.469 35.1296 116.464 35.1296H117.821C118.545 35.1296 118.635 34.6053 118.273 34.1683L113.841 27.7888Z" fill="#75787B"/>
<path d="M130.304 21.2344H122.796C121.982 21.2344 121.801 21.4966 121.801 22.1957C121.801 28.3131 121.891 32.5079 120.444 32.5079C119.63 32.5079 119.358 32.7701 119.358 33.4692V34.2557C119.358 35.0422 119.63 35.3044 120.444 35.3044C121.71 35.3044 122.705 34.8674 123.429 33.8188C124.424 32.4205 124.605 29.7114 124.605 26.4779V23.7688H128.404V34.0809C128.404 34.8674 128.676 35.1296 129.399 35.1296H130.304C131.118 35.1296 131.299 34.8674 131.299 34.0809V22.1957C131.39 21.4966 131.118 21.2344 130.304 21.2344Z" fill="#75787B"/>
<path d="M188.108 21.2344H187.204C186.48 21.2344 186.209 21.4966 186.209 22.1957V26.8275H180.6V22.1957C180.6 21.4092 180.329 21.2344 179.605 21.2344H178.701C177.887 21.2344 177.615 21.4966 177.615 22.1957V34.0809C177.615 34.8674 177.887 35.1296 178.701 35.1296H179.605C180.419 35.1296 180.6 34.8674 180.6 34.0809V29.624H186.209V34.0809C186.209 34.8674 186.48 35.1296 187.204 35.1296H188.108C188.923 35.1296 189.103 34.8674 189.103 34.0809V22.1957C189.194 21.4966 188.923 21.2344 188.108 21.2344Z" fill="#75787B"/>
<path d="M160.156 29.8884H159.523C158.709 29.8884 158.528 30.2379 158.347 30.8497C157.895 31.9858 157.081 32.8597 155.633 32.8597C153.553 32.8597 152.558 30.7623 152.558 28.4901V28.0532C152.558 25.6936 153.372 23.5962 155.543 23.5962C156.719 23.5962 157.623 24.208 158.166 25.4314C158.438 25.9558 158.528 26.3927 159.342 26.3927H160.156C160.88 26.3927 161.151 26.0432 161.061 25.4314C160.79 23.0719 158.799 20.9745 155.543 20.9745C151.382 20.9745 149.392 23.9458 149.392 27.9658V28.5775C149.392 32.6849 151.563 35.5688 155.633 35.5688C159.071 35.5688 160.97 33.0345 161.242 31.0245C161.242 30.2379 160.97 29.8884 160.156 29.8884Z" fill="#75787B"/>
<path d="M173.905 29.8884H173.272C172.458 29.8884 172.277 30.2379 172.096 30.8497C171.644 31.9858 170.83 32.8597 169.382 32.8597C167.302 32.8597 166.307 30.7623 166.307 28.4901V28.0532C166.307 25.6936 167.121 23.5962 169.292 23.5962C170.468 23.5962 171.372 24.208 171.915 25.4314C172.187 25.9558 172.277 26.3927 173.091 26.3927H173.905C174.629 26.3927 174.9 26.0432 174.81 25.4314C174.538 23.0719 172.548 20.9745 169.292 20.9745C165.131 20.9745 163.141 23.9458 163.141 27.9658V28.5775C163.141 32.6849 165.312 35.5688 169.382 35.5688C172.82 35.5688 174.719 33.0345 174.991 31.0245C174.991 30.2379 174.629 29.8884 173.905 29.8884Z" fill="#75787B"/>
</svg>
