<svg width="131" height="34" viewBox="0 0 131 34" fill="none" xmlns="http://www.w3.org/2000/svg">
<path d="M9.48573 17.3577C14.116 17.3577 17.8907 13.5804 17.8907 8.94697C17.8907 4.31352 14.116 0.536255 9.48573 0.536255C4.85546 0.536255 1.03046 4.31352 1.03046 8.94697C1.03046 13.5804 4.80513 17.3577 9.48573 17.3577ZM9.48573 5.47188C11.3982 5.47188 12.9584 7.03315 12.9584 8.94697C12.9584 10.8608 11.3982 12.4221 9.48573 12.4221C7.57323 12.4221 6.01303 10.8608 6.01303 8.94697C5.9627 7.03315 7.5229 5.47188 9.48573 5.47188Z" fill="white"/>
<path d="M12.8582 24.2575C14.5694 23.8546 16.2302 23.1999 17.7401 22.243C18.8977 21.5379 19.25 19.9766 18.495 18.8182C17.7904 17.6599 16.2302 17.3073 15.0726 18.0628C11.6503 20.2284 7.17098 20.2284 3.74861 18.0628C2.59104 17.3577 1.08117 17.6599 0.326232 18.8182C-0.328046 19.9766 0.0242575 21.4875 1.18183 22.1926C2.6917 23.1495 4.35256 23.8042 6.06374 24.2071L1.38314 28.8909C0.42689 29.8478 0.42689 31.4091 1.38314 32.366C1.88643 32.8697 2.49038 33.0711 3.14466 33.0711C3.79894 33.0711 4.40288 32.8193 4.90618 32.366L9.53645 27.7326L14.1667 32.366C15.123 33.3229 16.6832 33.3229 17.6394 32.366C18.5957 31.4091 18.5957 29.8478 17.6394 28.8909L12.8582 24.2575Z" fill="white"/>
<path d="M78.1346 12.5731C77.0274 12.5731 76.1718 12.8753 75.7188 13.0768C75.5175 13.2278 75.1149 13.3789 75.3665 13.9329L75.5175 14.1848C75.7188 14.5373 75.9704 14.638 76.4234 14.4366C76.7757 14.2855 77.43 14.084 77.9836 14.084C79.1412 14.084 79.9464 14.638 79.9968 16.1993V16.4511C79.5941 16.0482 78.8895 15.6453 77.7823 15.6453C75.9201 15.6453 74.7122 16.7029 74.7122 18.3146C74.7122 19.9262 75.9201 21.0342 77.7823 21.0342C78.7889 21.0342 79.5941 20.6313 80.0974 20.0269C80.2484 20.4298 80.3994 20.8327 80.8524 20.8327H80.9027C81.3556 20.8327 81.4563 20.6816 81.4563 20.2284V15.9978C81.4563 13.53 80.1981 12.5731 78.1346 12.5731ZM78.1849 19.624C77.1783 19.624 76.4737 19.1204 76.4737 18.3146C76.4737 17.5087 77.2287 17.0051 78.1849 17.0051C79.1915 17.0051 79.9464 17.5087 79.9464 18.3146C79.9464 19.07 79.1915 19.624 78.1849 19.624Z" fill="white"/>
<path d="M48.3901 12.775H47.8868C47.4339 12.775 47.3332 12.9261 47.3332 13.329V15.9983H44.2128V13.329C44.2128 12.8758 44.0618 12.775 43.6592 12.775H43.1559C42.703 12.775 42.6023 12.9261 42.6023 13.329V20.1785C42.6023 20.6317 42.7533 20.7828 43.1559 20.7828H43.6592C44.1122 20.7828 44.2128 20.6317 44.2128 20.1785V17.6099H47.3332V20.1785C47.3332 20.6317 47.4842 20.7828 47.8868 20.7828H48.3901C48.8431 20.7828 48.9941 20.6317 48.9941 20.1785V13.329C48.9941 12.9261 48.8431 12.775 48.3901 12.775Z" fill="white"/>
<path d="M28.9128 12.6226C26.5976 12.6226 25.3394 14.3349 25.3394 16.6013V17.0042C25.3394 19.3209 26.5473 20.9829 28.9128 20.9829C31.2279 20.9829 32.4861 19.2705 32.4861 17.0042V16.6013C32.4861 14.3349 31.2782 12.6226 28.9128 12.6226ZM30.775 16.9538C30.775 18.4144 30.2213 19.5224 28.9128 19.5224C27.6546 19.5224 27.0506 18.3136 27.0506 16.9538V16.702C27.0506 15.3422 27.5539 14.1335 28.9128 14.1335C30.2717 14.1335 30.775 15.3422 30.775 16.702V16.9538Z" fill="white"/>
<path d="M54.2283 12.6226C51.9131 12.6226 50.6549 14.3349 50.6549 16.6013V17.0042C50.6549 19.3209 51.8628 20.9829 54.2283 20.9829C56.5434 20.9829 57.8016 19.2705 57.8016 17.0042V16.6013C57.7513 14.3349 56.5434 12.6226 54.2283 12.6226ZM56.0401 16.9538C56.0401 18.4144 55.4865 19.5224 54.1779 19.5224C52.8694 19.5224 52.3158 18.3136 52.3158 16.9538V16.702C52.3158 15.3422 52.8191 14.1335 54.1779 14.1335C55.5368 14.1335 56.0401 15.3422 56.0401 16.702V16.9538Z" fill="white"/>
<path d="M40.4885 19.2719H40.0355V13.329C40.0355 12.8758 39.8845 12.775 39.4316 12.775H35.4052C35.0026 12.775 34.8516 12.9261 34.8516 13.329C34.8516 15.1421 34.6 17.5596 34.147 19.2719H33.694C33.2411 19.2719 33.0901 19.423 33.0901 19.8763L33.1404 21.9412C33.1404 22.3945 33.2914 22.4952 33.7444 22.4952H34.0463C34.4993 22.4952 34.6 22.3441 34.6503 21.9412L34.7006 20.7325H39.5825L39.6329 21.9412C39.6329 22.3945 39.7839 22.4952 40.2368 22.4952H40.5388C40.9414 22.4952 41.1428 22.3441 41.1428 21.9412L41.1931 19.8763C41.0924 19.423 40.8911 19.2719 40.4885 19.2719ZM38.425 19.2719H35.8079C36.1602 17.761 36.3112 15.6457 36.4118 14.1852H38.425V19.2719Z" fill="white"/>
<path d="M119.757 16.5523L122.072 13.2283C122.223 13.0268 122.173 12.775 121.82 12.775H121.015C120.461 12.775 120.361 12.8254 120.109 13.2283L118.247 15.9983H117.542V13.329C117.542 12.8758 117.391 12.775 116.938 12.775H116.435C116.032 12.775 115.881 12.9261 115.881 13.329V20.1785C115.881 20.6317 116.032 20.7828 116.435 20.7828H116.938C117.391 20.7828 117.542 20.6317 117.542 20.1785V17.6099H118.499L120.361 20.3295C120.663 20.7325 120.713 20.7828 121.267 20.7828H122.072C122.424 20.7828 122.525 20.4806 122.324 20.2288L119.757 16.5523Z" fill="white"/>
<path d="M129.47 12.775H129.319C128.917 12.775 128.766 12.9261 128.464 13.329L127.306 14.8399C126.652 15.7465 125.645 17.1063 125.092 17.9625C125.142 17.0559 125.243 15.0917 125.243 14.0845V13.329C125.243 12.8758 125.092 12.775 124.689 12.775H124.186C123.783 12.775 123.632 12.9261 123.632 13.329V20.1785C123.632 20.6317 123.783 20.7828 124.186 20.7828H124.337C124.79 20.7828 124.941 20.5814 125.243 20.1785L126.35 18.6676C127.054 17.761 128.011 16.4012 128.615 15.4947C128.514 16.4516 128.464 18.3654 128.464 19.3726V20.1785C128.464 20.6317 128.615 20.7828 129.017 20.7828H129.47C129.873 20.7828 130.024 20.6317 130.024 20.1785V13.329C130.024 12.9261 129.873 12.775 129.47 12.775Z" fill="white"/>
<path d="M113.164 12.775H113.013C112.56 12.775 112.409 12.9261 112.157 13.329L110.999 14.8399L108.785 17.9625C108.886 17.0559 108.936 15.0917 108.936 14.0845V13.329C108.936 12.8758 108.785 12.775 108.382 12.775H107.929C107.476 12.775 107.376 12.9261 107.376 13.329V20.1785C107.376 20.6317 107.527 20.7828 107.929 20.7828H108.08C108.483 20.7828 108.634 20.5814 108.936 20.1785L110.094 18.6676C110.748 17.761 111.704 16.4012 112.308 15.4947C112.258 16.4516 112.157 18.3654 112.157 19.3726V20.1785C112.157 20.6317 112.308 20.7828 112.711 20.7828H113.164C113.617 20.7828 113.768 20.6317 113.768 20.1785V13.329C113.768 12.9261 113.617 12.775 113.164 12.775Z" fill="white"/>
<path d="M63.3379 16.5523L65.653 13.2283C65.804 13.0268 65.7537 12.775 65.4014 12.775H64.5961C64.0425 12.775 63.9922 12.8254 63.7405 13.2283L61.828 15.9983H61.1234V13.329C61.1234 12.8758 60.9724 12.775 60.5195 12.775H60.0162C59.5632 12.775 59.4122 12.9261 59.4122 13.329V20.1785C59.4122 20.6317 59.5632 20.7828 60.0162 20.7828H60.5195C60.9221 20.7828 61.1234 20.6317 61.1234 20.1785V17.6099H62.0293L63.9418 20.3295C64.1935 20.7325 64.2438 20.7828 64.7974 20.7828H65.5524C65.955 20.7828 66.0053 20.4806 65.804 20.2288L63.3379 16.5523Z" fill="white"/>
<path d="M72.4978 12.775H68.3205C67.8675 12.775 67.7669 12.9261 67.7669 13.329C67.7669 16.8545 67.8172 19.2719 67.0119 19.2719C66.559 19.2719 66.408 19.423 66.408 19.8259V20.2792C66.408 20.7325 66.559 20.8836 67.0119 20.8836C67.7165 20.8836 68.2701 20.6317 68.6728 20.0274C69.2264 19.2216 69.3271 17.6603 69.3271 15.7968V14.2356H71.4409V20.1785C71.4409 20.6317 71.5919 20.7828 71.9945 20.7828H72.4978C72.9508 20.7828 73.0514 20.6317 73.0514 20.1785V13.329C73.1017 12.9261 72.9508 12.775 72.4978 12.775Z" fill="white"/>
<path d="M104.658 12.775H104.155C103.752 12.775 103.601 12.9261 103.601 13.329V15.9983H100.481V13.329C100.481 12.8758 100.33 12.775 99.9271 12.775H99.4238C98.9709 12.775 98.8199 12.9261 98.8199 13.329V20.1785C98.8199 20.6317 98.9709 20.7828 99.4238 20.7828H99.9271C100.38 20.7828 100.481 20.6317 100.481 20.1785V17.6099H103.601V20.1785C103.601 20.6317 103.752 20.7828 104.155 20.7828H104.658C105.111 20.7828 105.212 20.6317 105.212 20.1785V13.329C105.262 12.9261 105.111 12.775 104.658 12.775Z" fill="white"/>
<path d="M89.1063 17.7596H88.754C88.3011 17.7596 88.2004 17.9611 88.0998 18.3136C87.8481 18.9684 87.3952 19.472 86.5899 19.472C85.4323 19.472 84.8787 18.2633 84.8787 16.9538V16.702C84.8787 15.3422 85.3317 14.1335 86.5396 14.1335C87.1938 14.1335 87.6971 14.486 87.9991 15.1911C88.1501 15.4933 88.2004 15.7451 88.6534 15.7451H89.1063C89.509 15.7451 89.66 15.5436 89.6096 15.1911C89.4587 13.8313 88.3514 12.6226 86.5396 12.6226C84.2244 12.6226 83.1172 14.3349 83.1172 16.6516V17.0042C83.1172 19.3713 84.3251 21.0333 86.5899 21.0333C88.5024 21.0333 89.5593 19.5727 89.7103 18.4144C89.7103 17.9611 89.5593 17.7596 89.1063 17.7596Z" fill="white"/>
<path d="M96.7564 17.7596H96.4041C95.9511 17.7596 95.8505 17.9611 95.7498 18.3136C95.4982 18.9684 95.0452 19.472 94.2399 19.472C93.0824 19.472 92.5287 18.2633 92.5287 16.9538V16.702C92.5287 15.3422 92.9817 14.1335 94.1896 14.1335C94.8439 14.1335 95.3472 14.486 95.6492 15.1911C95.8001 15.4933 95.8505 15.7451 96.3034 15.7451H96.7564C97.159 15.7451 97.31 15.5436 97.2597 15.1911C97.1087 13.8313 96.0015 12.6226 94.1896 12.6226C91.8745 12.6226 90.7672 14.3349 90.7672 16.6516V17.0042C90.7672 19.3713 91.9751 21.0333 94.2399 21.0333C96.1524 21.0333 97.2094 19.5727 97.3604 18.4144C97.3604 17.9611 97.159 17.7596 96.7564 17.7596Z" fill="white"/>
</svg>
