<svg width="114" height="53" viewBox="0 0 114 53" fill="none" xmlns="http://www.w3.org/2000/svg">
<g clip-path="url(#clip0_186_1421)">
<path fill-rule="evenodd" clip-rule="evenodd" d="M82.9204 26.3419C82.9204 21.6547 79.7566 18.3502 75.1631 18.3502C70.5228 18.3502 67.359 21.6547 67.359 26.3419C67.359 30.9353 70.5228 34.2866 75.1631 34.2866C79.7566 34.2866 82.9204 30.9353 82.9204 26.3419ZM75.1631 39.3253C67.8277 39.3253 61.9219 33.7945 61.9219 26.3184C61.9219 18.8893 67.8277 13.2881 75.1631 13.2881C82.4517 13.2881 88.3575 18.9127 88.3575 26.3184C88.3575 33.8179 82.4517 39.3253 75.1631 39.3253ZM90.9355 14.3193C90.9355 13.8974 91.1699 13.6631 91.5917 13.6631H95.6695C96.0914 13.6631 96.3257 13.8974 96.3257 14.3193V24.1389L105.489 14.0615C105.747 13.7802 105.981 13.6865 106.356 13.6865H112.239C112.637 13.6865 112.684 14.0849 112.426 14.3661L100.966 25.9434L113.036 38.3176C113.293 38.5754 113.246 38.9972 112.848 38.9972H107.013C106.52 38.9972 106.38 38.88 106.122 38.6457L96.3257 27.8886V38.3176C96.3257 38.7394 96.0914 38.9738 95.6695 38.9738H91.5917C91.1699 38.9738 90.9355 38.7394 90.9355 38.3176V14.3193Z" fill="white"/>
<path fill-rule="evenodd" clip-rule="evenodd" d="M0.308594 25.2638C0.308594 13.3584 0.308594 7.40573 4.01146 3.70286C7.71433 0 13.667 0 25.5725 0H27.6817C39.5871 0 45.5398 0 49.2427 3.70286C52.9456 7.40573 52.9456 13.3584 52.9456 25.2638V27.3731C52.9456 39.2785 52.9456 45.2312 49.2427 48.9341C45.5398 52.6369 39.5871 52.6369 27.6817 52.6369H25.5725C13.667 52.6369 7.71433 52.6369 4.01146 48.9341C0.308594 45.2312 0.308594 39.2785 0.308594 27.3731V25.2638ZM26.6264 26.1777C29.2044 26.1777 31.5245 25.1465 33.2119 23.4591C34.8993 21.7718 35.9305 19.4282 35.9305 16.8737C35.9305 14.2957 34.8993 11.9756 33.2119 10.2882C31.5245 8.60082 29.2044 7.56964 26.6264 7.56964C24.0485 7.56964 21.7283 8.60082 20.0409 10.2882C18.3536 11.9756 17.3224 14.2957 17.3224 16.8737C17.3224 19.4516 18.3536 21.7718 20.0409 23.4591C21.7283 25.1231 24.0485 26.1777 26.6264 26.1777ZM23.6501 13.8739C24.4235 13.1005 25.4781 12.6318 26.6264 12.6318C27.7982 12.6318 28.8528 13.1005 29.6028 13.8739C30.3762 14.6473 30.8449 15.7019 30.8449 16.8502C30.8449 17.9986 30.3762 19.0766 29.6028 19.8266C28.8294 20.6 27.7748 21.0687 26.6264 21.0687C25.4546 21.0687 24.4 20.6 23.6501 19.8266C22.8767 19.0532 22.408 17.9986 22.408 16.8502C22.408 15.7019 22.8767 14.6473 23.6501 13.8739ZM36.3994 26.2017L39.1414 29.928C39.2586 30.1155 39.2351 30.3733 39.0476 30.5139C36.7509 32.3888 34.1027 33.6309 31.3138 34.2871L37.079 44.4348C37.2431 44.716 37.0321 45.0676 36.704 45.0676H31.056C30.8919 45.0676 30.7279 44.9738 30.6576 44.8098L26.6266 35.8104L22.5956 44.8098C22.5253 44.9738 22.3613 45.0676 22.1972 45.0676H16.5492C16.2211 45.0676 16.0102 44.716 16.1508 44.4348L21.916 34.2871C19.1271 33.6309 16.4554 32.3888 14.1587 30.5139C13.9947 30.3733 13.9478 30.1155 14.0884 29.928L16.807 26.2017C16.971 25.9908 17.2757 25.9674 17.4632 26.1314C20.0411 28.3109 23.205 29.7405 26.6032 29.7405C30.0014 29.7405 33.1652 28.3344 35.7432 26.1314C35.9541 25.9674 36.2353 25.9908 36.3994 26.2017Z" fill="white"/>
</g>
<defs>
<clipPath id="clip0_186_1421">
<rect width="112.891" height="52.6369" fill="white" transform="translate(0.308594)"/>
</clipPath>
</defs>
</svg>
