<svg width="178" height="172" viewBox="0 0 178 172" fill="none" xmlns="http://www.w3.org/2000/svg">
<g filter="url(#filter0_d_844_2040)">
<ellipse cx="89" cy="82.7232" rx="85" ry="82.7232" fill="white" fill-opacity="0.2" shape-rendering="crispEdges"/>
<path d="M172.103 82.7232C172.103 127.314 134.945 163.549 89 163.549C43.0548 163.549 5.89732 127.314 5.89732 82.7232C5.89732 38.1325 43.0548 1.89732 89 1.89732C134.945 1.89732 172.103 38.1325 172.103 82.7232Z" stroke="white" stroke-width="3.79464" shape-rendering="crispEdges"/>
</g>
<circle cx="89" cy="83" r="56" fill="white"/>
<path d="M104.2 76.426L85.2 65.444C84.0452 64.7773 82.7354 64.4261 81.402 64.4258C80.0685 64.4254 78.7585 64.7759 77.6034 65.442C76.4483 66.1082 75.4887 67.0665 74.8211 68.2207C74.1535 69.375 73.8014 70.6846 73.8 72.018V93.982C73.8014 95.3148 74.1532 96.6237 74.8202 97.7776C75.4871 98.9314 76.4458 99.8896 77.6 100.556C78.7554 101.223 80.0659 101.574 81.4 101.574C82.7341 101.574 84.0447 101.223 85.2 100.556L104.2 89.574C105.352 88.9059 106.308 87.947 106.972 86.7933C107.637 85.6395 107.987 84.3314 107.987 83C107.987 81.6686 107.637 80.3605 106.972 79.2067C106.308 78.053 105.352 77.0941 104.2 76.426ZM100.4 83L81.4 93.982V72.018L100.4 83ZM89 45C81.4843 45 74.1374 47.2287 67.8883 51.4042C61.6393 55.5796 56.7687 61.5144 53.8926 68.458C51.0165 75.4016 50.2639 83.0421 51.7302 90.4134C53.1964 97.7847 56.8156 104.556 62.13 109.87C67.4444 115.184 74.2153 118.804 81.5866 120.27C88.9579 121.736 96.5984 120.984 103.542 118.107C110.486 115.231 116.42 110.361 120.596 104.112C124.771 97.8626 127 90.5157 127 83C127 78.0098 126.017 73.0684 124.107 68.458C122.198 63.8477 119.399 59.6586 115.87 56.1299C112.341 52.6013 108.152 49.8023 103.542 47.8926C98.9316 45.9829 93.9902 45 89 45ZM89 113.4C82.9875 113.4 77.1099 111.617 72.1107 108.277C67.1114 104.936 63.215 100.188 60.9141 94.6336C58.6132 89.0787 58.0112 82.9663 59.1841 77.0693C60.3571 71.1722 63.2525 65.7555 67.504 61.504C71.7555 57.2524 77.1722 54.3571 83.0693 53.1841C88.9663 52.0111 95.0787 52.6132 100.634 54.9141C106.188 57.215 110.936 61.1114 114.277 66.1107C117.617 71.1099 119.4 76.9874 119.4 83C119.4 91.0626 116.197 98.7949 110.496 104.496C104.795 110.197 97.0626 113.4 89 113.4Z" fill="#AEAC23"/>
<defs>
<filter id="filter0_d_844_2040" x="0.964286" y="0" width="176.071" height="171.518" filterUnits="userSpaceOnUse" color-interpolation-filters="sRGB">
<feFlood flood-opacity="0" result="BackgroundImageFix"/>
<feColorMatrix in="SourceAlpha" type="matrix" values="0 0 0 0 0 0 0 0 0 0 0 0 0 0 0 0 0 0 127 0" result="hardAlpha"/>
<feOffset dy="3.03571"/>
<feGaussianBlur stdDeviation="1.51786"/>
<feComposite in2="hardAlpha" operator="out"/>
<feColorMatrix type="matrix" values="0 0 0 0 0 0 0 0 0 0 0 0 0 0 0 0 0 0 0.25 0"/>
<feBlend mode="normal" in2="BackgroundImageFix" result="effect1_dropShadow_844_2040"/>
<feBlend mode="normal" in="SourceGraphic" in2="effect1_dropShadow_844_2040" result="shape"/>
</filter>
</defs>
</svg>
