<svg width="160" height="160" viewBox="0 0 160 160" fill="none" xmlns="http://www.w3.org/2000/svg">
<g filter="url(#filter0_d_862_1958)">
<circle cx="80" cy="76" r="58" fill="white"/>
<path d="M106.887 54.6713L106.887 54.6707C103.307 51.0818 98.5622 48.8913 93.5087 48.495C88.5773 48.1082 83.6694 49.455 79.6293 52.2964C75.3842 49.2513 70.1584 47.8805 64.9572 48.4564L65.0122 48.9532L64.9572 48.4564C59.6347 49.0459 54.7331 51.6301 51.2396 55.6887L51.2396 55.6887C47.7461 59.7473 45.9202 64.9789 46.1295 70.3298C46.3388 75.6805 48.5676 80.7533 52.367 84.5265C52.3672 84.5267 52.3675 84.5269 52.3677 84.5271L72.8427 105.035L72.8458 105.038C74.654 106.818 77.0894 107.815 79.6264 107.815C82.1633 107.815 84.5988 106.818 86.407 105.038L86.41 105.035L106.887 84.5256L106.887 84.5248C110.831 80.5577 113.044 75.1915 113.044 69.598C113.044 64.0046 110.831 58.6385 106.887 54.6713ZM81.0534 99.745L81.0517 99.7468C80.8651 99.9352 80.6432 100.084 80.3986 100.186L80.398 100.187C80.154 100.289 79.8914 100.341 79.6264 100.341C79.3613 100.341 79.0988 100.289 78.8547 100.187L78.8541 100.186C78.6095 100.084 78.3877 99.9352 78.2011 99.7468L78.2002 99.7459L57.7267 79.1734C57.7261 79.1729 57.7256 79.1724 57.7251 79.1718C55.2315 76.6219 53.8353 73.1975 53.8353 69.631C53.8353 66.0653 55.231 62.6413 57.7236 60.0917C60.2648 57.5844 63.6912 56.1785 67.2613 56.1785C70.832 56.1785 74.2589 57.5849 76.8004 60.0931C77.1531 60.448 77.5723 60.7298 78.0339 60.9222L78.0341 60.9223C78.4969 61.115 78.9932 61.2143 79.4945 61.2143C79.9958 61.2143 80.4921 61.115 80.9549 60.9223L80.955 60.9222C81.4167 60.7298 81.8359 60.448 82.1887 60.093C84.7302 57.5848 88.1571 56.1785 91.7277 56.1785C95.2986 56.1785 98.7258 57.5851 101.267 60.0937C103.796 62.6102 105.239 66.0168 105.286 69.5838C105.334 73.1512 103.982 76.5951 101.521 79.1782L101.384 79.323V79.4149L81.0534 99.745Z" fill="#AEAC23" stroke="#AEAC23"/>
</g>
<defs>
<filter id="filter0_d_862_1958" x="0" y="0" width="160" height="160" filterUnits="userSpaceOnUse" color-interpolation-filters="sRGB">
<feFlood flood-opacity="0" result="BackgroundImageFix"/>
<feColorMatrix in="SourceAlpha" type="matrix" values="0 0 0 0 0 0 0 0 0 0 0 0 0 0 0 0 0 0 127 0" result="hardAlpha"/>
<feOffset dy="4"/>
<feGaussianBlur stdDeviation="11"/>
<feColorMatrix type="matrix" values="0 0 0 0 0 0 0 0 0 0 0 0 0 0 0 0 0 0 0.05 0"/>
<feBlend mode="normal" in2="BackgroundImageFix" result="effect1_dropShadow_862_1958"/>
<feBlend mode="normal" in="SourceGraphic" in2="effect1_dropShadow_862_1958" result="shape"/>
</filter>
</defs>
</svg>
