<svg width="160" height="160" viewBox="0 0 160 160" fill="none" xmlns="http://www.w3.org/2000/svg">
<g filter="url(#filter0_d_862_1950)">
<circle cx="80" cy="76" r="58" fill="white"/>
<path d="M111.683 66.1176L82.1648 39.8795C81.5662 39.3537 80.7968 39.0637 80.0001 39.0637C79.2035 39.0637 78.4341 39.3537 77.8355 39.8795L48.3176 66.1176C47.8159 66.5613 47.4622 67.1481 47.3039 67.7991C47.1456 68.4498 47.1903 69.1336 47.4321 69.7581C47.67 70.3747 48.0884 70.9047 48.6327 71.2793C49.1769 71.6538 49.8216 71.8552 50.4823 71.8571H53.762V101.375C53.762 102.245 54.1076 103.079 54.7227 103.694C55.3377 104.309 56.172 104.655 57.0418 104.655H102.958C103.828 104.655 104.663 104.309 105.278 103.694C105.893 103.079 106.238 102.245 106.238 101.375V71.8571H109.518C110.179 71.8552 110.823 71.6538 111.367 71.2793C111.912 70.9047 112.33 70.3747 112.568 69.7581C112.81 69.1336 112.855 68.4498 112.696 67.7991C112.538 67.1481 112.184 66.5613 111.683 66.1176ZM83.2799 98.0952H76.7204V88.256C76.7204 87.3862 77.0661 86.5518 77.681 85.9368C78.296 85.3219 79.1304 84.9762 80.0001 84.9762C80.8699 84.9762 81.7043 85.3219 82.3193 85.9368C82.9342 86.5518 83.2799 87.3862 83.2799 88.256V98.0952ZM99.6787 98.0952H89.8394V88.256C89.8394 85.6466 88.8027 83.1438 86.9575 81.2986C85.1123 79.4534 82.6095 78.4167 80.0001 78.4167C77.3904 78.4167 74.888 79.4534 73.0427 81.2986C71.1975 83.1438 70.1609 85.6466 70.1609 88.256V98.0952H60.3216V71.8571H99.6787V98.0952ZM59.1081 65.2976L80.0001 46.7342L100.892 65.2976H59.1081Z" fill="#AEAC23"/>
</g>
<defs>
<filter id="filter0_d_862_1950" x="0" y="0" width="160" height="160" filterUnits="userSpaceOnUse" color-interpolation-filters="sRGB">
<feFlood flood-opacity="0" result="BackgroundImageFix"/>
<feColorMatrix in="SourceAlpha" type="matrix" values="0 0 0 0 0 0 0 0 0 0 0 0 0 0 0 0 0 0 127 0" result="hardAlpha"/>
<feOffset dy="4"/>
<feGaussianBlur stdDeviation="11"/>
<feColorMatrix type="matrix" values="0 0 0 0 0 0 0 0 0 0 0 0 0 0 0 0 0 0 0.05 0"/>
<feBlend mode="normal" in2="BackgroundImageFix" result="effect1_dropShadow_862_1950"/>
<feBlend mode="normal" in="SourceGraphic" in2="effect1_dropShadow_862_1950" result="shape"/>
</filter>
</defs>
</svg>
