<svg width="160" height="160" viewBox="0 0 160 160" fill="none" xmlns="http://www.w3.org/2000/svg">
<g filter="url(#filter0_d_865_1730)">
<circle cx="80" cy="76" r="58" fill="white"/>
<path d="M106.888 54.6713L106.888 54.6707C103.308 51.0818 98.5632 48.8913 93.5097 48.495C88.5783 48.1082 83.6704 49.455 79.6302 52.2964C75.3852 49.2513 70.1594 47.8805 64.9582 48.4564L65.0132 48.9532L64.9582 48.4564C59.6356 49.0459 54.7341 51.6301 51.2406 55.6887L51.2406 55.6887C47.7471 59.7473 45.9211 64.9789 46.1305 70.3298C46.3398 75.6805 48.5685 80.7533 52.368 84.5265C52.3682 84.5267 52.3684 84.5269 52.3686 84.5271L72.8437 105.035L72.8468 105.038C74.6549 106.818 77.0904 107.815 79.6273 107.815C82.1643 107.815 84.5998 106.818 86.4079 105.038L86.411 105.035L106.888 84.5256L106.888 84.5248C110.831 80.5577 113.045 75.1915 113.045 69.598C113.045 64.0046 110.831 58.6385 106.888 54.6713ZM81.0544 99.745L81.0526 99.7468C80.8661 99.9352 80.6442 100.084 80.3996 100.186L80.399 100.187C80.1549 100.289 79.8924 100.341 79.6273 100.341C79.3623 100.341 79.0998 100.289 78.8557 100.187L78.8551 100.186C78.6105 100.084 78.3886 99.9352 78.2021 99.7468L78.2012 99.7459L57.7276 79.1734C57.7271 79.1729 57.7266 79.1724 57.7261 79.1718C55.2325 76.6219 53.8363 73.1975 53.8363 69.631C53.8363 66.0653 55.232 62.6413 57.7246 60.0917C60.2658 57.5844 63.6922 56.1785 67.2623 56.1785C70.833 56.1785 74.2599 57.5849 76.8014 60.0931C77.1541 60.448 77.5733 60.7298 78.0349 60.9222L78.0351 60.9223C78.4979 61.115 78.9942 61.2143 79.4955 61.2143C79.9967 61.2143 80.493 61.115 80.9559 60.9223L80.956 60.9222C81.4177 60.7298 81.8369 60.448 82.1896 60.093C84.7311 57.5848 88.1581 56.1785 91.7286 56.1785C95.2996 56.1785 98.7268 57.5851 101.268 60.0937C103.797 62.6102 105.24 66.0168 105.287 69.5838C105.335 73.1512 103.983 76.5951 101.522 79.1782L101.384 79.323V79.4149L81.0544 99.745Z" fill="#9E5163" stroke="#9E5163"/>
</g>
<defs>
<filter id="filter0_d_865_1730" x="0" y="0" width="160" height="160" filterUnits="userSpaceOnUse" color-interpolation-filters="sRGB">
<feFlood flood-opacity="0" result="BackgroundImageFix"/>
<feColorMatrix in="SourceAlpha" type="matrix" values="0 0 0 0 0 0 0 0 0 0 0 0 0 0 0 0 0 0 127 0" result="hardAlpha"/>
<feOffset dy="4"/>
<feGaussianBlur stdDeviation="11"/>
<feColorMatrix type="matrix" values="0 0 0 0 0 0 0 0 0 0 0 0 0 0 0 0 0 0 0.05 0"/>
<feBlend mode="normal" in2="BackgroundImageFix" result="effect1_dropShadow_865_1730"/>
<feBlend mode="normal" in="SourceGraphic" in2="effect1_dropShadow_865_1730" result="shape"/>
</filter>
</defs>
</svg>
