<svg width="161" height="160" viewBox="0 0 161 160" fill="none" xmlns="http://www.w3.org/2000/svg">
<g filter="url(#filter0_d_246_1085)">
<circle cx="80.9297" cy="76" r="58" fill="white"/>
<path d="M112.612 66.1178L83.0945 39.8798C82.4959 39.354 81.7265 39.064 80.9298 39.064C80.1332 39.064 79.3637 39.354 78.7652 39.8798L49.2473 66.1178C48.7456 66.5616 48.3918 67.1483 48.2336 67.7993C48.0752 68.45 48.12 69.1339 48.3618 69.7583C48.5996 70.3749 49.0181 70.9049 49.5624 71.2795C50.1066 71.654 50.7513 71.8554 51.412 71.8574H54.6917V101.375C54.6917 102.245 55.0373 103.079 55.6523 103.694C56.2674 104.31 57.1016 104.655 57.9715 104.655H103.888C104.758 104.655 105.592 104.31 106.207 103.694C106.822 103.079 107.168 102.245 107.168 101.375V71.8574H110.448C111.108 71.8554 111.753 71.654 112.297 71.2795C112.842 70.9049 113.26 70.3749 113.498 69.7583C113.74 69.1339 113.785 68.45 113.626 67.7993C113.468 67.1483 113.114 66.5616 112.612 66.1178ZM84.2096 98.0955H77.6501V88.2562C77.6501 87.3864 77.9958 86.552 78.6107 85.9371C79.2257 85.3221 80.06 84.9764 80.9298 84.9764C81.7996 84.9764 82.634 85.3221 83.249 85.9371C83.8639 86.552 84.2096 87.3864 84.2096 88.2562V98.0955ZM100.608 98.0955H90.7691V88.2562C90.7691 85.6468 89.7324 83.144 87.8872 81.2988C86.042 79.4536 83.5392 78.4169 80.9298 78.4169C78.3201 78.4169 75.8177 79.4536 73.9724 81.2988C72.1272 83.144 71.0905 85.6468 71.0905 88.2562V98.0955H61.2513V71.8574H100.608V98.0955ZM60.0377 65.2979L80.9298 46.7345L101.822 65.2979H60.0377Z" fill="#FFB758"/>
</g>
<defs>
<filter id="filter0_d_246_1085" x="0.929688" y="0" width="160" height="160" filterUnits="userSpaceOnUse" color-interpolation-filters="sRGB">
<feFlood flood-opacity="0" result="BackgroundImageFix"/>
<feColorMatrix in="SourceAlpha" type="matrix" values="0 0 0 0 0 0 0 0 0 0 0 0 0 0 0 0 0 0 127 0" result="hardAlpha"/>
<feOffset dy="4"/>
<feGaussianBlur stdDeviation="11"/>
<feColorMatrix type="matrix" values="0 0 0 0 0 0 0 0 0 0 0 0 0 0 0 0 0 0 0.05 0"/>
<feBlend mode="normal" in2="BackgroundImageFix" result="effect1_dropShadow_246_1085"/>
<feBlend mode="normal" in="SourceGraphic" in2="effect1_dropShadow_246_1085" result="shape"/>
</filter>
</defs>
</svg>
