<svg width="161" height="160" viewBox="0 0 161 160" fill="none" xmlns="http://www.w3.org/2000/svg">
<g filter="url(#filter0_d_246_3347)">
<circle cx="80.7344" cy="76" r="58" fill="white"/>
<path d="M112.417 66.1176L82.8992 39.8795C82.3006 39.3537 81.5312 39.0637 80.7345 39.0637C79.9379 39.0637 79.1684 39.3537 78.5699 39.8795L49.052 66.1176C48.5503 66.5613 48.1965 67.1481 48.0382 67.7991C47.8799 68.4498 47.9247 69.1336 48.1665 69.7581C48.4043 70.3747 48.8228 70.9047 49.367 71.2793C49.9113 71.6538 50.556 71.8552 51.2167 71.8571H54.4964V101.375C54.4964 102.245 54.8419 103.079 55.457 103.694C56.0721 104.309 56.9063 104.655 57.7762 104.655H103.693C104.563 104.655 105.397 104.309 106.012 103.694C106.627 103.079 106.973 102.245 106.973 101.375V71.8571H110.252C110.913 71.8552 111.558 71.6538 112.102 71.2793C112.646 70.9047 113.065 70.3747 113.303 69.7581C113.544 69.1336 113.589 68.4498 113.431 67.7991C113.272 67.1481 112.919 66.5613 112.417 66.1176ZM84.0143 98.0952H77.4548V88.256C77.4548 87.3862 77.8004 86.5518 78.4154 85.9368C79.0304 85.3219 79.8647 84.9762 80.7345 84.9762C81.6043 84.9762 82.4387 85.3219 83.0536 85.9368C83.6686 86.5518 84.0143 87.3862 84.0143 88.256V98.0952ZM100.413 98.0952H90.5738V88.256C90.5738 85.6466 89.5371 83.1438 87.6919 81.2986C85.8467 79.4534 83.3439 78.4167 80.7345 78.4167C78.1248 78.4167 75.6224 79.4534 73.7771 81.2986C71.9319 83.1438 70.8952 85.6466 70.8952 88.256V98.0952H61.0559V71.8571H100.413V98.0952ZM59.8424 65.2976L80.7345 46.7342L101.627 65.2976H59.8424Z" fill="#B06464"/>
</g>
<defs>
<filter id="filter0_d_246_3347" x="0.734375" y="0" width="160" height="160" filterUnits="userSpaceOnUse" color-interpolation-filters="sRGB">
<feFlood flood-opacity="0" result="BackgroundImageFix"/>
<feColorMatrix in="SourceAlpha" type="matrix" values="0 0 0 0 0 0 0 0 0 0 0 0 0 0 0 0 0 0 127 0" result="hardAlpha"/>
<feOffset dy="4"/>
<feGaussianBlur stdDeviation="11"/>
<feColorMatrix type="matrix" values="0 0 0 0 0 0 0 0 0 0 0 0 0 0 0 0 0 0 0.05 0"/>
<feBlend mode="normal" in2="BackgroundImageFix" result="effect1_dropShadow_246_3347"/>
<feBlend mode="normal" in="SourceGraphic" in2="effect1_dropShadow_246_3347" result="shape"/>
</filter>
</defs>
</svg>
