<svg width="161" height="160" viewBox="0 0 161 160" fill="none" xmlns="http://www.w3.org/2000/svg">
<g filter="url(#filter0_d_246_3802)">
<circle cx="80.0312" cy="76" r="58" fill="white"/>
<path d="M111.714 66.1178L82.196 39.8798C81.5975 39.354 80.8281 39.064 80.0314 39.064C79.2347 39.064 78.4653 39.354 77.8668 39.8798L48.3489 66.1178C47.8472 66.5616 47.4934 67.1483 47.3351 67.7993C47.1768 68.45 47.2215 69.1339 47.4634 69.7583C47.7012 70.3749 48.1196 70.9049 48.6639 71.2795C49.2082 71.654 49.8529 71.8554 50.5135 71.8574H53.7933V101.375C53.7933 102.245 54.1388 103.079 54.7539 103.694C55.369 104.31 56.2032 104.655 57.0731 104.655H102.99C103.86 104.655 104.694 104.31 105.309 103.694C105.924 103.079 106.269 102.245 106.269 101.375V71.8574H109.549C110.21 71.8554 110.855 71.654 111.399 71.2795C111.943 70.9049 112.362 70.3749 112.599 69.7583C112.841 69.1339 112.886 68.45 112.728 67.7993C112.569 67.1483 112.216 66.5616 111.714 66.1178ZM83.3112 98.0955H76.7516V88.2562C76.7516 87.3864 77.0973 86.552 77.7123 85.9371C78.3272 85.3221 79.1616 84.9764 80.0314 84.9764C80.9012 84.9764 81.7356 85.3221 82.3505 85.9371C82.9655 86.552 83.3112 87.3864 83.3112 88.2562V98.0955ZM99.71 98.0955H89.8707V88.2562C89.8707 85.6468 88.834 83.144 86.9888 81.2988C85.1436 79.4536 82.6408 78.4169 80.0314 78.4169C77.4217 78.4169 74.9192 79.4536 73.074 81.2988C71.2287 83.144 70.1921 85.6468 70.1921 88.2562V98.0955H60.3528V71.8574H99.71V98.0955ZM59.1393 65.2979L80.0314 46.7345L100.923 65.2979H59.1393Z" fill="#97C6F0"/>
</g>
<defs>
<filter id="filter0_d_246_3802" x="0.03125" y="0" width="160" height="160" filterUnits="userSpaceOnUse" color-interpolation-filters="sRGB">
<feFlood flood-opacity="0" result="BackgroundImageFix"/>
<feColorMatrix in="SourceAlpha" type="matrix" values="0 0 0 0 0 0 0 0 0 0 0 0 0 0 0 0 0 0 127 0" result="hardAlpha"/>
<feOffset dy="4"/>
<feGaussianBlur stdDeviation="11"/>
<feColorMatrix type="matrix" values="0 0 0 0 0 0 0 0 0 0 0 0 0 0 0 0 0 0 0.05 0"/>
<feBlend mode="normal" in2="BackgroundImageFix" result="effect1_dropShadow_246_3802"/>
<feBlend mode="normal" in="SourceGraphic" in2="effect1_dropShadow_246_3802" result="shape"/>
</filter>
</defs>
</svg>
