<svg width="160" height="160" viewBox="0 0 160 160" fill="none" xmlns="http://www.w3.org/2000/svg">
<g filter="url(#filter0_d_865_1743)">
<circle cx="80" cy="76" r="58" fill="white"/>
<path d="M111.682 66.1176L82.1645 39.8795C81.566 39.3537 80.7966 39.0637 79.9999 39.0637C79.2032 39.0637 78.4338 39.3537 77.8353 39.8795L48.3174 66.1176C47.8157 66.5613 47.4619 67.1481 47.3036 67.7991C47.1453 68.4498 47.19 69.1336 47.4319 69.7581C47.6697 70.3747 48.0881 70.9047 48.6324 71.2793C49.1767 71.6538 49.8214 71.8552 50.482 71.8571H53.7618V101.375C53.7618 102.245 54.1073 103.079 54.7224 103.694C55.3375 104.309 56.1717 104.655 57.0416 104.655H102.958C103.828 104.655 104.662 104.309 105.277 103.694C105.892 103.079 106.238 102.245 106.238 101.375V71.8571H109.518C110.178 71.8552 110.823 71.6538 111.367 71.2793C111.912 70.9047 112.33 70.3747 112.568 69.7581C112.81 69.1336 112.855 68.4498 112.696 67.7991C112.538 67.1481 112.184 66.5613 111.682 66.1176ZM83.2797 98.0952H76.7201V88.256C76.7201 87.3862 77.0658 86.5518 77.6808 85.9368C78.2957 85.3219 79.1301 84.9762 79.9999 84.9762C80.8697 84.9762 81.7041 85.3219 82.319 85.9368C82.934 86.5518 83.2797 87.3862 83.2797 88.256V98.0952ZM99.6785 98.0952H89.8392V88.256C89.8392 85.6466 88.8025 83.1438 86.9573 81.2986C85.1121 79.4534 82.6093 78.4167 79.9999 78.4167C77.3902 78.4167 74.8877 79.4534 73.0425 81.2986C71.1973 83.1438 70.1606 85.6466 70.1606 88.256V98.0952H60.3213V71.8571H99.6785V98.0952ZM59.1078 65.2976L79.9999 46.7342L100.892 65.2976H59.1078Z" fill="#D85E51"/>
</g>
<defs>
<filter id="filter0_d_865_1743" x="0" y="0" width="160" height="160" filterUnits="userSpaceOnUse" color-interpolation-filters="sRGB">
<feFlood flood-opacity="0" result="BackgroundImageFix"/>
<feColorMatrix in="SourceAlpha" type="matrix" values="0 0 0 0 0 0 0 0 0 0 0 0 0 0 0 0 0 0 127 0" result="hardAlpha"/>
<feOffset dy="4"/>
<feGaussianBlur stdDeviation="11"/>
<feColorMatrix type="matrix" values="0 0 0 0 0 0 0 0 0 0 0 0 0 0 0 0 0 0 0.05 0"/>
<feBlend mode="normal" in2="BackgroundImageFix" result="effect1_dropShadow_865_1743"/>
<feBlend mode="normal" in="SourceGraphic" in2="effect1_dropShadow_865_1743" result="shape"/>
</filter>
</defs>
</svg>
