<svg width="161" height="160" viewBox="0 0 161 160" fill="none" xmlns="http://www.w3.org/2000/svg">
<g filter="url(#filter0_d_282_1828)">
<circle cx="80.9102" cy="76" r="58" fill="white"/>
<path d="M112.593 66.1178L83.0749 39.8798C82.4764 39.354 81.707 39.064 80.9103 39.064C80.1136 39.064 79.3442 39.354 78.7457 39.8798L49.2278 66.1178C48.7261 66.5616 48.3723 67.1483 48.214 67.7993C48.0557 68.45 48.1004 69.1339 48.3423 69.7583C48.5801 70.3749 48.9985 70.9049 49.5428 71.2795C50.0871 71.654 50.7318 71.8554 51.3924 71.8574H54.6722V101.375C54.6722 102.245 55.0177 103.079 55.6328 103.694C56.2479 104.31 57.0821 104.655 57.952 104.655H103.869C104.738 104.655 105.573 104.31 106.188 103.694C106.803 103.079 107.148 102.245 107.148 101.375V71.8574H110.428C111.089 71.8554 111.734 71.654 112.278 71.2795C112.822 70.9049 113.241 70.3749 113.478 69.7583C113.72 69.1339 113.765 68.45 113.607 67.7993C113.448 67.1483 113.095 66.5616 112.593 66.1178ZM84.1901 98.0955H77.6305V88.2562C77.6305 87.3864 77.9762 86.552 78.5912 85.9371C79.2061 85.3221 80.0405 84.9764 80.9103 84.9764C81.7801 84.9764 82.6145 85.3221 83.2294 85.9371C83.8444 86.552 84.1901 87.3864 84.1901 88.2562V98.0955ZM100.589 98.0955H90.7496V88.2562C90.7496 85.6468 89.7129 83.144 87.8677 81.2988C86.0225 79.4536 83.5197 78.4169 80.9103 78.4169C78.3006 78.4169 75.7981 79.4536 73.9529 81.2988C72.1077 83.144 71.071 85.6468 71.071 88.2562V98.0955H61.2317V71.8574H100.589V98.0955ZM60.0182 65.2979L80.9103 46.7345L101.802 65.2979H60.0182Z" fill="#A4A3F6"/>
</g>
<defs>
<filter id="filter0_d_282_1828" x="0.910156" y="0" width="160" height="160" filterUnits="userSpaceOnUse" color-interpolation-filters="sRGB">
<feFlood flood-opacity="0" result="BackgroundImageFix"/>
<feColorMatrix in="SourceAlpha" type="matrix" values="0 0 0 0 0 0 0 0 0 0 0 0 0 0 0 0 0 0 127 0" result="hardAlpha"/>
<feOffset dy="4"/>
<feGaussianBlur stdDeviation="11"/>
<feColorMatrix type="matrix" values="0 0 0 0 0 0 0 0 0 0 0 0 0 0 0 0 0 0 0.05 0"/>
<feBlend mode="normal" in2="BackgroundImageFix" result="effect1_dropShadow_282_1828"/>
<feBlend mode="normal" in="SourceGraphic" in2="effect1_dropShadow_282_1828" result="shape"/>
</filter>
</defs>
</svg>
