<svg width="160" height="160" viewBox="0 0 160 160" fill="none" xmlns="http://www.w3.org/2000/svg">
<g filter="url(#filter0_d_901_2102)">
<circle cx="80" cy="76" r="58" fill="white"/>
<path d="M106.888 54.6713L106.887 54.6707C103.308 51.0818 98.5624 48.8913 93.5089 48.495C88.5775 48.1082 83.6696 49.455 79.6294 52.2964C75.3844 49.2513 70.1586 47.8805 64.9574 48.4564L65.0124 48.9532L64.9574 48.4564C59.6348 49.0459 54.7333 51.6301 51.2398 55.6887L51.2398 55.6887C47.7463 59.7473 45.9203 64.9789 46.1297 70.3298C46.339 75.6805 48.5677 80.7533 52.3672 84.5265C52.3674 84.5267 52.3676 84.5269 52.3678 84.5271L72.8429 105.035L72.846 105.038C74.6542 106.818 77.0896 107.815 79.6266 107.815C82.1635 107.815 84.599 106.818 86.4071 105.038L86.4102 105.035L106.887 84.5256L106.888 84.5248C110.831 80.5577 113.044 75.1915 113.044 69.598C113.044 64.0046 110.831 58.6385 106.888 54.6713ZM81.0536 99.745L81.0518 99.7468C80.8653 99.9352 80.6434 100.084 80.3988 100.186L80.3982 100.187C80.1541 100.289 79.8916 100.341 79.6266 100.341C79.3615 100.341 79.099 100.289 78.8549 100.187L78.8543 100.186C78.6097 100.084 78.3878 99.9352 78.2013 99.7468L78.2004 99.7459L57.7268 79.1734C57.7263 79.1729 57.7258 79.1724 57.7253 79.1718C55.2317 76.6219 53.8355 73.1975 53.8355 69.631C53.8355 66.0653 55.2312 62.6413 57.7238 60.0917C60.265 57.5844 63.6914 56.1785 67.2615 56.1785C70.8322 56.1785 74.2591 57.5849 76.8006 60.0931C77.1533 60.448 77.5725 60.7298 78.0341 60.9222L78.0343 60.9223C78.4971 61.115 78.9934 61.2143 79.4947 61.2143C79.9959 61.2143 80.4922 61.115 80.9551 60.9223L80.9552 60.9222C81.4169 60.7298 81.8361 60.448 82.1888 60.093C84.7303 57.5848 88.1573 56.1785 91.7278 56.1785C95.2988 56.1785 98.726 57.5851 101.268 60.0937C103.796 62.6102 105.239 66.0168 105.286 69.5838C105.334 73.1512 103.982 76.5951 101.522 79.1782L101.384 79.323V79.4149L81.0536 99.745Z" fill="#AFA031" stroke="#AFA031"/>
</g>
<defs>
<filter id="filter0_d_901_2102" x="0" y="0" width="160" height="160" filterUnits="userSpaceOnUse" color-interpolation-filters="sRGB">
<feFlood flood-opacity="0" result="BackgroundImageFix"/>
<feColorMatrix in="SourceAlpha" type="matrix" values="0 0 0 0 0 0 0 0 0 0 0 0 0 0 0 0 0 0 127 0" result="hardAlpha"/>
<feOffset dy="4"/>
<feGaussianBlur stdDeviation="11"/>
<feColorMatrix type="matrix" values="0 0 0 0 0 0 0 0 0 0 0 0 0 0 0 0 0 0 0.05 0"/>
<feBlend mode="normal" in2="BackgroundImageFix" result="effect1_dropShadow_901_2102"/>
<feBlend mode="normal" in="SourceGraphic" in2="effect1_dropShadow_901_2102" result="shape"/>
</filter>
</defs>
</svg>
