<svg width="160" height="160" viewBox="0 0 160 160" fill="none" xmlns="http://www.w3.org/2000/svg">
<g filter="url(#filter0_d_901_2094)">
<circle cx="80" cy="76" r="58" fill="white"/>
<path d="M111.683 66.1176L82.1647 39.8795C81.5661 39.3537 80.7967 39.0637 80 39.0637C79.2034 39.0637 78.4339 39.3537 77.8354 39.8795L48.3175 66.1176C47.8158 66.5613 47.462 67.1481 47.3037 67.7991C47.1454 68.4498 47.1902 69.1336 47.432 69.7581C47.6698 70.3747 48.0883 70.9047 48.6325 71.2793C49.1768 71.6538 49.8215 71.8552 50.4822 71.8571H53.7619V101.375C53.7619 102.245 54.1075 103.079 54.7225 103.694C55.3376 104.309 56.1718 104.655 57.0417 104.655H102.958C103.828 104.655 104.663 104.309 105.277 103.694C105.892 103.079 106.238 102.245 106.238 101.375V71.8571H109.518C110.178 71.8552 110.823 71.6538 111.367 71.2793C111.912 70.9047 112.33 70.3747 112.568 69.7581C112.81 69.1336 112.855 68.4498 112.696 67.7991C112.538 67.1481 112.184 66.5613 111.683 66.1176ZM83.2798 98.0952H76.7203V88.256C76.7203 87.3862 77.066 86.5518 77.6809 85.9368C78.2959 85.3219 79.1302 84.9762 80 84.9762C80.8698 84.9762 81.7042 85.3219 82.3191 85.9368C82.9341 86.5518 83.2798 87.3862 83.2798 88.256V98.0952ZM99.6786 98.0952H89.8393V88.256C89.8393 85.6466 88.8026 83.1438 86.9574 81.2986C85.1122 79.4534 82.6094 78.4167 80 78.4167C77.3903 78.4167 74.8879 79.4534 73.0426 81.2986C71.1974 83.1438 70.1607 85.6466 70.1607 88.256V98.0952H60.3215V71.8571H99.6786V98.0952ZM59.1079 65.2976L80 46.7342L100.892 65.2976H59.1079Z" fill="#AFA031"/>
</g>
<defs>
<filter id="filter0_d_901_2094" x="0" y="0" width="160" height="160" filterUnits="userSpaceOnUse" color-interpolation-filters="sRGB">
<feFlood flood-opacity="0" result="BackgroundImageFix"/>
<feColorMatrix in="SourceAlpha" type="matrix" values="0 0 0 0 0 0 0 0 0 0 0 0 0 0 0 0 0 0 127 0" result="hardAlpha"/>
<feOffset dy="4"/>
<feGaussianBlur stdDeviation="11"/>
<feColorMatrix type="matrix" values="0 0 0 0 0 0 0 0 0 0 0 0 0 0 0 0 0 0 0.05 0"/>
<feBlend mode="normal" in2="BackgroundImageFix" result="effect1_dropShadow_901_2094"/>
<feBlend mode="normal" in="SourceGraphic" in2="effect1_dropShadow_901_2094" result="shape"/>
</filter>
</defs>
</svg>
