<svg width="129" height="47" viewBox="0 0 129 47" fill="none" xmlns="http://www.w3.org/2000/svg">
<g clip-path="url(#clip0_186_1408)">
<path d="M15.2549 9.91895C18.3896 9.91895 19.8916 10.851 19.8916 12.715C19.8916 14.7787 17.6059 15.3779 14.21 15.3779C17.6059 15.3779 20.2835 16.0436 20.2835 18.1739C20.2835 20.7036 18.3243 21.3694 15.5814 21.3694H11.1406V9.91895H15.2549ZM13.4916 11.9161V15.4444C17.2794 15.4444 17.5406 14.4459 17.5406 13.647C17.5406 12.5818 16.7569 11.9161 15.1243 11.9161H13.4916ZM13.4916 15.4444V19.3722H15.5814C17.5406 19.3722 17.9325 18.3736 17.9325 17.4416C17.9325 16.3099 17.2141 15.4444 13.4916 15.4444Z" fill="white"/>
<path d="M26.4222 9.91895V14.6456H31.1242V9.91895H33.5406V21.4359H31.1242V16.7759H26.4222V21.4359H24.0059V9.91895H26.4222Z" fill="white"/>
<path d="M40.0726 21.4369H37.6562V9.91992H40.0726V21.4369ZM45.2318 9.91992L42.4889 21.4369H40.0726L42.8154 9.91992H45.2318ZM47.6481 21.4369H45.2318V9.91992H47.6481V21.4369Z" fill="white"/>
<path d="M51.8262 9.91895H54.0466V21.4359H51.8262V9.91895ZM58.5527 21.4359L60.4466 9.91895H62.5364L60.6425 21.4359H56.1364L54.1119 9.91895H56.5282L58.5527 21.4359ZM65.018 21.4359H62.6017V9.91895H65.018V21.4359Z" fill="white"/>
<path d="M76.708 21.4359L75.7938 18.1073H71.157L70.2427 21.4359H67.957L71.2223 9.91895H73.508L71.8101 15.977H75.206L73.508 9.91895H75.9897L79.1897 21.4359H76.708Z" fill="white"/>
<path d="M84.5441 9.91992V14.6466H89.1809V9.91992H91.6625V21.4369H89.1809V16.7769H84.5441V21.4369H82.0625V9.91992H84.5441Z" fill="white"/>
<path d="M98.2601 21.4369H95.8438V9.91992H98.2601V21.4369ZM103.419 9.91992L100.676 21.4369H98.2601L101.003 9.91992H103.419ZM105.77 21.4369H103.354V9.91992H105.77V21.4369Z" fill="white"/>
<path d="M117.393 9.91992V12.0502H112.365V14.58H117.393V16.7103H112.365V19.3066H117.393V21.4369H110.014V9.91992H117.393Z" fill="white"/>
<path d="M102.438 39.0779L90.0956 27.5609H3.56499V3.39518H124.904V27.4943H102.438V39.0779ZM105.769 47V30.9561H128.234V0H0.234375V30.9561H88.5936L105.769 47Z" fill="white"/>
</g>
<defs>
<clipPath id="clip0_186_1408">
<rect width="128" height="47" fill="white" transform="translate(0.234375)"/>
</clipPath>
</defs>
</svg>
