<svg width="429" height="66" viewBox="0 0 429 66" fill="none" xmlns="http://www.w3.org/2000/svg">
<g clip-path="url(#clip0)">
<path d="M17.5391 19.3083C21.1995 19.3083 22.9534 20.4648 22.9534 22.7778C22.9534 25.3386 20.2844 26.0821 16.319 26.0821C20.2844 26.0821 23.411 26.9081 23.411 29.5515C23.411 32.6906 21.1232 33.5166 17.9204 33.5166H12.7349V19.3083H17.5391ZM15.4801 21.7865V26.1647C19.9031 26.1647 20.2081 24.9256 20.2081 23.9343C20.2081 22.6126 19.293 21.7865 17.3866 21.7865H15.4801ZM15.4801 26.1647V31.0384H17.9204C20.2081 31.0384 20.6657 29.7993 20.6657 28.6429C20.6657 27.2385 19.8268 26.1647 15.4801 26.1647Z" fill="#010101"/>
<path d="M30.5793 19.3083V25.1734H36.0699V19.3083H38.8914V33.5992H36.0699V27.8168H30.5793V33.5992H27.7578V19.3083H30.5793Z" fill="#010101"/>
<path d="M46.5173 33.5992H43.6958V19.3083H46.5173V33.5992ZM52.5417 19.3083L49.3389 33.5992H46.5173L49.7202 19.3083H52.5417ZM55.3632 33.5992H52.5417V19.3083H55.3632V33.5992Z" fill="#010101"/>
<path d="M60.2437 19.3083H62.8364V33.5992H60.2437V19.3083ZM68.0982 33.5992L70.3097 19.3083H72.7499L70.5385 33.5992H65.2767L62.9127 19.3083H65.7342L68.0982 33.5992ZM75.6477 33.5992H72.8262V19.3083H75.6477V33.5992Z" fill="#010101"/>
<path d="M89.2977 33.5992L88.23 29.4689H82.8157L81.7481 33.5992H79.0791L82.892 19.3083H85.561L83.5783 26.8255H87.5437L85.561 19.3083H88.4588L92.1954 33.5992H89.2977Z" fill="#010101"/>
<path d="M98.4486 19.3083V25.1734H103.863V19.3083H106.761V33.5992H103.863V27.8168H98.4486V33.5992H95.5508V19.3083H98.4486Z" fill="#010101"/>
<path d="M114.463 33.5992H111.642V19.3083H114.463V33.5992ZM120.488 19.3083L117.285 33.5992H114.463L117.666 19.3083H120.488ZM123.233 33.5992H120.411V19.3083H123.233V33.5992Z" fill="#010101"/>
<path d="M136.807 19.3083V21.9517H130.935V25.0908H136.807V27.7342H130.935V30.9558H136.807V33.5992H128.189V19.3083H136.807Z" fill="#010101"/>
<path d="M119.343 55.4899L104.931 41.199H3.88915V11.2129H145.576V41.1164H119.343V55.4899ZM123.233 65.32V55.4072V45.4119H145.576H149.465V41.199V11.2129V7H145.576H3.88915H0V11.2129V41.1164V45.3293H3.88915H103.177L123.233 65.32Z" fill="#212529"/>
</g>
<path d="M247.361 24.3725C254.31 24.3725 259.975 18.8997 259.975 12.1863C259.975 5.47288 254.31 0 247.361 0C240.412 0 234.671 5.47288 234.671 12.1863C234.671 18.8997 240.336 24.3725 247.361 24.3725ZM247.361 7.15122C250.231 7.15122 252.573 9.41335 252.573 12.1863C252.573 14.9592 250.231 17.2213 247.361 17.2213C244.491 17.2213 242.149 14.9592 242.149 12.1863C242.074 9.41335 244.415 7.15122 247.361 7.15122Z" fill="black"/>
<path d="M252.423 34.3697C254.991 33.7859 257.484 32.8373 259.75 31.4508C261.487 30.4292 262.016 28.1671 260.883 26.4887C259.825 24.8104 257.484 24.2996 255.746 25.3941C250.61 28.5319 243.888 28.5319 238.751 25.3941C237.014 24.3725 234.748 24.8104 233.615 26.4887C232.633 28.1671 233.162 30.3562 234.899 31.3778C237.165 32.7643 239.658 33.7129 242.226 34.2967L235.201 41.0831C233.766 42.4695 233.766 44.7316 235.201 46.1181C235.957 46.8478 236.863 47.1397 237.845 47.1397C238.827 47.1397 239.733 46.7749 240.489 46.1181L247.438 39.4047L254.387 46.1181C255.822 47.5046 258.164 47.5046 259.599 46.1181C261.034 44.7316 261.034 42.4695 259.599 41.0831L252.423 34.3697Z" fill="black"/>
<path d="M350.39 17.4402C348.728 17.4402 347.444 17.878 346.765 18.1699C346.462 18.3888 345.858 18.6077 346.236 19.4104L346.462 19.7753C346.765 20.2861 347.142 20.432 347.822 20.1401C348.351 19.9212 349.333 19.6293 350.164 19.6293C351.901 19.6293 353.109 20.432 353.185 22.6941V23.059C352.581 22.4752 351.523 21.8915 349.861 21.8915C347.067 21.8915 345.254 23.4239 345.254 25.759C345.254 28.094 347.067 29.6994 349.861 29.6994C351.372 29.6994 352.581 29.1157 353.336 28.24C353.563 28.8238 353.789 29.4075 354.469 29.4075H354.545C355.224 29.4075 355.375 29.1886 355.375 28.5319V22.4023C355.375 18.8266 353.487 17.4402 350.39 17.4402ZM350.466 27.6562C348.955 27.6562 347.898 26.9265 347.898 25.759C347.898 24.5914 349.031 23.8617 350.466 23.8617C351.976 23.8617 353.109 24.5914 353.109 25.759C353.109 26.8535 351.976 27.6562 350.466 27.6562Z" fill="black"/>
<path d="M305.749 17.7308H304.993C304.314 17.7308 304.163 17.9497 304.163 18.5335V22.401H299.48V18.5335C299.48 17.8767 299.253 17.7308 298.649 17.7308H297.893C297.214 17.7308 297.062 17.9497 297.062 18.5335V28.4576C297.062 29.1144 297.289 29.3333 297.893 29.3333H298.649C299.328 29.3333 299.48 29.1144 299.48 28.4576V24.7361H304.163V28.4576C304.163 29.1144 304.389 29.3333 304.993 29.3333H305.749C306.429 29.3333 306.655 29.1144 306.655 28.4576V18.5335C306.655 17.9497 306.429 17.7308 305.749 17.7308Z" fill="black"/>
<path d="M276.518 17.5137C273.043 17.5137 271.155 19.9948 271.155 23.2785V23.8623C271.155 27.219 272.968 29.627 276.518 29.627C279.992 29.627 281.881 27.146 281.881 23.8623V23.2785C281.881 19.9948 280.068 17.5137 276.518 17.5137ZM279.312 23.7893C279.312 25.9055 278.482 27.5108 276.518 27.5108C274.629 27.5108 273.723 25.7595 273.723 23.7893V23.4244C273.723 21.4542 274.478 19.7029 276.518 19.7029C278.557 19.7029 279.312 21.4542 279.312 23.4244V23.7893Z" fill="black"/>
<path d="M314.511 17.5137C311.036 17.5137 309.148 19.9948 309.148 23.2785V23.8623C309.148 27.219 310.961 29.627 314.511 29.627C317.985 29.627 319.874 27.146 319.874 23.8623V23.2785C319.798 19.9948 317.985 17.5137 314.511 17.5137ZM317.23 23.7893C317.23 25.9055 316.399 27.5108 314.435 27.5108C312.471 27.5108 311.641 25.7595 311.641 23.7893V23.4244C311.641 21.4542 312.396 19.7029 314.435 19.7029C316.475 19.7029 317.23 21.4542 317.23 23.4244V23.7893Z" fill="black"/>
<path d="M293.89 27.1441H293.21V18.5335C293.21 17.8767 292.984 17.7308 292.304 17.7308H286.261C285.657 17.7308 285.43 17.9497 285.43 18.5335C285.43 21.1604 285.053 24.6631 284.373 27.1441H283.693C283.013 27.1441 282.787 27.363 282.787 28.0198L282.862 31.0116C282.862 31.6684 283.089 31.8143 283.769 31.8143H284.222C284.902 31.8143 285.053 31.5954 285.128 31.0116L285.204 29.2603H292.531L292.606 31.0116C292.606 31.6684 292.833 31.8143 293.513 31.8143H293.966C294.57 31.8143 294.872 31.5954 294.872 31.0116L294.948 28.0198C294.797 27.363 294.494 27.1441 293.89 27.1441ZM290.793 27.1441H286.865C287.394 24.955 287.621 21.8902 287.772 19.774H290.793V27.1441Z" fill="black"/>
<path d="M412.856 23.2036L416.331 18.3875C416.557 18.0956 416.482 17.7308 415.953 17.7308H414.744C413.914 17.7308 413.763 17.8037 413.385 18.3875L410.59 22.401H409.533V18.5335C409.533 17.8767 409.306 17.7308 408.626 17.7308H407.871C407.267 17.7308 407.04 17.9497 407.04 18.5335V28.4576C407.04 29.1144 407.267 29.3333 407.871 29.3333H408.626C409.306 29.3333 409.533 29.1144 409.533 28.4576V24.7361H410.968L413.763 28.6765C414.216 29.2603 414.291 29.3333 415.122 29.3333H416.331C416.859 29.3333 417.01 28.8954 416.708 28.5306L412.856 23.2036Z" fill="black"/>
<path d="M427.434 17.7308H427.207C426.603 17.7308 426.376 17.9497 425.923 18.5335L424.186 20.7226C423.204 22.0361 421.693 24.0063 420.862 25.2469C420.938 23.9334 421.089 21.0875 421.089 19.628V18.5335C421.089 17.8767 420.862 17.7308 420.258 17.7308H419.503C418.898 17.7308 418.672 17.9497 418.672 18.5335V28.4576C418.672 29.1144 418.898 29.3333 419.503 29.3333H419.729C420.409 29.3333 420.636 29.0414 421.089 28.4576L422.751 26.2685C423.808 24.955 425.243 22.9847 426.15 21.6712C425.999 23.0577 425.923 25.8306 425.923 27.2901V28.4576C425.923 29.1144 426.15 29.3333 426.754 29.3333H427.434C428.038 29.3333 428.265 29.1144 428.265 28.4576V18.5335C428.265 17.9497 428.038 17.7308 427.434 17.7308Z" fill="black"/>
<path d="M402.961 17.7308H402.735C402.055 17.7308 401.828 17.9497 401.451 18.5335L399.713 20.7226L396.39 25.2469C396.541 23.9334 396.616 21.0875 396.616 19.628V18.5335C396.616 17.8767 396.39 17.7308 395.786 17.7308H395.106C394.426 17.7308 394.275 17.9497 394.275 18.5335V28.4576C394.275 29.1144 394.501 29.3333 395.106 29.3333H395.332C395.937 29.3333 396.163 29.0414 396.616 28.4576L398.354 26.2685C399.336 24.955 400.771 22.9847 401.677 21.6712C401.602 23.0577 401.451 25.8306 401.451 27.2901V28.4576C401.451 29.1144 401.677 29.3333 402.281 29.3333H402.961C403.641 29.3333 403.868 29.1144 403.868 28.4576V18.5335C403.868 17.9497 403.641 17.7308 402.961 17.7308Z" fill="black"/>
<path d="M328.183 23.2036L331.657 18.3875C331.884 18.0956 331.808 17.7308 331.28 17.7308H330.071C329.24 17.7308 329.165 17.8037 328.787 18.3875L325.917 22.401H324.859V18.5335C324.859 17.8767 324.633 17.7308 323.953 17.7308H323.197C322.518 17.7308 322.291 17.9497 322.291 18.5335V28.4576C322.291 29.1144 322.518 29.3333 323.197 29.3333H323.953C324.557 29.3333 324.859 29.1144 324.859 28.4576V24.7361H326.219L329.089 28.6765C329.467 29.2603 329.542 29.3333 330.373 29.3333H331.506C332.11 29.3333 332.186 28.8954 331.884 28.5306L328.183 23.2036Z" fill="black"/>
<path d="M341.93 17.7308H335.66C334.981 17.7308 334.829 17.9497 334.829 18.5335C334.829 23.6415 334.905 27.1441 333.696 27.1441C333.017 27.1441 332.79 27.363 332.79 27.9468V28.6036C332.79 29.2603 333.017 29.4792 333.696 29.4792C334.754 29.4792 335.585 29.1144 336.189 28.2387C337.02 27.0712 337.171 24.809 337.171 22.1091V19.847H340.343V28.4576C340.343 29.1144 340.57 29.3333 341.174 29.3333H341.93C342.609 29.3333 342.761 29.1144 342.761 28.4576V18.5335C342.836 17.9497 342.609 17.7308 341.93 17.7308Z" fill="black"/>
<path d="M390.196 17.7308H389.441C388.836 17.7308 388.61 17.9497 388.61 18.5335V22.401H383.927V18.5335C383.927 17.8767 383.7 17.7308 383.096 17.7308H382.34C381.661 17.7308 381.434 17.9497 381.434 18.5335V28.4576C381.434 29.1144 381.661 29.3333 382.34 29.3333H383.096C383.776 29.3333 383.927 29.1144 383.927 28.4576V24.7361H388.61V28.4576C388.61 29.1144 388.836 29.3333 389.441 29.3333H390.196C390.876 29.3333 391.027 29.1144 391.027 28.4576V18.5335C391.102 17.9497 390.876 17.7308 390.196 17.7308Z" fill="black"/>
<path d="M366.856 24.9568H366.327C365.648 24.9568 365.497 25.2487 365.346 25.7595C364.968 26.7082 364.288 27.4379 363.08 27.4379C361.342 27.4379 360.511 25.6866 360.511 23.7893V23.4244C360.511 21.4542 361.191 19.7029 363.004 19.7029C363.986 19.7029 364.741 20.2137 365.194 21.2353C365.421 21.6731 365.497 22.038 366.176 22.038H366.856C367.46 22.038 367.687 21.7461 367.612 21.2353C367.385 19.2651 365.723 17.5137 363.004 17.5137C359.529 17.5137 357.868 19.9948 357.868 23.3515V23.8623C357.868 27.2919 359.68 29.7 363.08 29.7C365.95 29.7 367.536 27.5838 367.763 25.9055C367.763 25.2487 367.536 24.9568 366.856 24.9568Z" fill="black"/>
<path d="M378.337 24.9568H377.808C377.129 24.9568 376.977 25.2487 376.826 25.7595C376.449 26.7082 375.769 27.4379 374.56 27.4379C372.823 27.4379 371.992 25.6866 371.992 23.7893V23.4244C371.992 21.4542 372.672 19.7029 374.485 19.7029C375.467 19.7029 376.222 20.2137 376.675 21.2353C376.902 21.6731 376.977 22.038 377.657 22.038H378.337C378.941 22.038 379.168 21.7461 379.092 21.2353C378.866 19.2651 377.204 17.5137 374.485 17.5137C371.01 17.5137 369.349 19.9948 369.349 23.3515V23.8623C369.349 27.2919 371.161 29.7 374.56 29.7C377.431 29.7 379.017 27.5838 379.243 25.9055C379.243 25.2487 378.941 24.9568 378.337 24.9568Z" fill="black"/>
<defs>
<clipPath id="clip0">
<rect width="149.465" height="58.32" fill="white" transform="translate(0 7)"/>
</clipPath>
</defs>
</svg>
