<svg width="160" height="59" viewBox="0 0 160 59" fill="none" xmlns="http://www.w3.org/2000/svg">
<g clip-path="url(#clip0_75_24225)">
<path d="M19.2909 12.8179C23.1822 12.8179 25.0467 13.9748 25.0467 16.2887C25.0467 18.8506 22.2093 19.5943 17.9938 19.5943C22.2093 19.5943 25.5331 20.4207 25.5331 23.0652C25.5331 26.2055 23.1011 27.0319 19.6962 27.0319H14.1836V12.8179H19.2909ZM17.102 15.2971V19.677C21.804 19.677 22.1283 18.4374 22.1283 17.4457C22.1283 16.1235 21.1554 15.2971 19.1287 15.2971H17.102ZM17.102 19.677V24.5527H19.6962C22.1283 24.5527 22.6147 23.3131 22.6147 22.1562C22.6147 20.7513 21.7229 19.677 17.102 19.677Z" fill="black"/>
<path d="M33.1538 12.8179V18.6853H38.9907V12.8179H41.9902V27.1146H38.9907V21.3298H33.1538V27.1146H30.1543V12.8179H33.1538Z" fill="black"/>
<path d="M50.0972 27.1155H47.0977V12.8188H50.0972V27.1155ZM56.5016 12.8188L53.0967 27.1155H50.0972L53.502 12.8188H56.5016ZM59.5011 27.1155H56.5016V12.8188H59.5011V27.1155Z" fill="black"/>
<path d="M64.6875 12.8179H67.4438V27.1146H64.6875V12.8179ZM73.0375 27.1146L75.3885 12.8179H77.9827L75.6317 27.1146H70.038L67.5249 12.8179H70.5244L73.0375 27.1146ZM81.0633 27.1146H78.0637V12.8179H81.0633V27.1146Z" fill="black"/>
<path d="M95.576 27.1146L94.4411 22.9826H88.6852L87.5503 27.1146H84.7129L88.7663 12.8179H91.6037L89.4959 20.3381H93.7114L91.6037 12.8179H94.6843L98.6566 27.1146H95.576Z" fill="black"/>
<path d="M105.303 12.8188V18.6863H111.059V12.8188H114.14V27.1155H111.059V21.3308H105.303V27.1155H102.223V12.8188H105.303Z" fill="black"/>
<path d="M122.33 27.1155H119.33V12.8188H122.33V27.1155ZM128.734 12.8188L125.329 27.1155H122.33L125.734 12.8188H128.734ZM131.652 27.1155H128.653V12.8188H131.652V27.1155Z" fill="black"/>
<path d="M146.081 12.8188V15.4633H139.838V18.6036H146.081V21.2481H139.838V24.4711H146.081V27.1155H136.92V12.8188H146.081Z" fill="black"/>
<path d="M127.516 49.0145L112.194 34.7178H4.77901V4.71951H155.404V34.6351H127.516V49.0145ZM131.651 58.8486V38.9324H159.538V0.504883H0.644531V38.9324H110.33L131.651 58.8486Z" fill="black"/>
</g>
<defs>
<clipPath id="clip0_75_24225">
<rect width="158.894" height="58.3437" fill="white" transform="translate(0.646484 0.504883)"/>
</clipPath>
</defs>
</svg>
